<svg width="38" height="29" viewBox="0 0 38 29" fill="none" xmlns="http://www.w3.org/2000/svg">
<path d="M30.4778 8.43101L24.5995 13.6834C24.4521 13.8151 24.4014 14.024 24.4717 14.2086C24.5421 14.3932 24.7191 14.5152 24.9166 14.5152L26.5289 14.5152L26.5289 23.5472C26.5289 23.8103 26.742 24.0236 27.0051 24.0236C27.2681 24.0236 27.4812 23.8103 27.4812 23.5472L27.4812 14.0388C27.4812 13.7757 27.2681 13.5624 27.0051 13.5624L26.1646 13.5624L30.7949 9.42512L35.4252 13.5624L34.5848 13.5624C34.3218 13.5624 34.1087 13.7757 34.1087 14.0388L34.1087 27.887L27.4813 27.887L27.4813 25.4527C27.4813 25.1896 27.2681 24.9763 27.0051 24.9763C26.7421 24.9763 26.529 25.1896 26.529 25.4527L26.529 28.3634C26.529 28.6265 26.7421 28.8398 27.0051 28.8398L34.5848 28.8398C34.8478 28.8398 35.0609 28.6265 35.0609 28.3634L35.0609 14.5151L36.6733 14.5151C36.8707 14.5151 37.0477 14.3932 37.1182 14.2085C37.1393 14.1532 37.1494 14.0958 37.1494 14.0388C37.1494 13.9056 37.0936 13.7755 36.9904 13.6833L31.112 8.43094C30.9314 8.2696 30.6584 8.2696 30.4778 8.43101Z" fill="#C69749"/>
<path d="M6.41454 14.7802L12.0668 19.8017C12.2085 19.9276 12.2573 20.1273 12.1897 20.3038C12.122 20.4803 11.9518 20.5969 11.7619 20.5969L10.2116 20.5969L10.2116 23.7798C10.2116 24.0313 10.0066 24.2353 9.75374 24.2353C9.50084 24.2353 9.29591 24.0313 9.29591 23.7798L9.29591 20.1415C9.29591 19.8899 9.50084 19.686 9.75374 19.686L10.5618 19.686L6.10963 15.7306L1.65742 19.686L2.46552 19.686C2.71842 19.686 2.92334 19.8899 2.92334 20.1415L2.92334 27.9289L9.29585 27.9289L9.29585 25.6016C9.29585 25.3501 9.50078 25.1462 9.75368 25.1462C10.0066 25.1462 10.2115 25.3501 10.2115 25.6016L10.2115 28.3844C10.2115 28.6359 10.0066 28.8398 9.75368 28.8398L2.46552 28.8398C2.21262 28.8398 2.00769 28.6359 2.00769 28.3844L2.00769 20.5969L0.457372 20.5969C0.267527 20.5969 0.0973378 20.4803 0.0295793 20.3037C0.00931273 20.2508 -0.0004548 20.1959 -0.000454799 20.1415C-0.000454797 20.0142 0.0532027 19.8897 0.152459 19.8016L5.80472 14.7801C5.97839 14.6259 6.24087 14.6259 6.41454 14.7802Z" fill="#C69749"/>
<path d="M18.2571 0.124496L12.3788 5.51636C12.2314 5.65154 12.1807 5.866 12.251 6.0555C12.3214 6.245 12.4984 6.37027 12.6959 6.37027L14.3082 6.37027L14.3082 8.98678C14.3082 9.25688 14.5213 9.47585 14.7844 9.47585C15.0474 9.47585 15.2605 9.25688 15.2605 8.98678L15.2605 5.8812C15.2605 5.61111 15.0474 5.39214 14.7844 5.39214L13.9439 5.39214L18.5742 1.14502L23.2045 5.39214L22.3641 5.39214C22.1011 5.39214 21.888 5.61111 21.888 5.8812L21.888 27.8617L15.2606 27.8617L15.2606 10.943C15.2606 10.6729 15.0474 10.4539 14.7844 10.4539C14.5214 10.4539 14.3083 10.6729 14.3083 10.943L14.3083 28.3508C14.3083 28.6209 14.5214 28.8398 14.7844 28.8398L22.3641 28.8398C22.6271 28.8398 22.8402 28.6209 22.8402 28.3508L22.8402 6.3702L24.4526 6.3702C24.65 6.3702 24.827 6.245 24.8975 6.05544C24.9186 5.99864 24.9287 5.93969 24.9287 5.8812C24.9287 5.74452 24.8729 5.61091 24.7697 5.51629L18.8913 0.124431C18.7107 -0.0412009 18.4377 -0.041199 18.2571 0.124496Z" fill="#C69749"/>
</svg>
