<svg width="37" height="35" viewBox="0 0 37 35" fill="none" xmlns="http://www.w3.org/2000/svg">
<path d="M18.8244 21.9639V26.2295H17.9454V21.9639H18.8244ZM20.5236 23.7861V24.4717H18.5841V23.7861H20.5236ZM20.7287 21.9639V22.6523H18.5841V21.9639H20.7287ZM21.2384 21.9639H22.8292C23.1554 21.9639 23.4357 22.0127 23.6701 22.1104C23.9064 22.208 24.088 22.3525 24.215 22.5439C24.3419 22.7354 24.4054 22.9707 24.4054 23.25C24.4054 23.4785 24.3663 23.6748 24.2882 23.8389C24.212 24.001 24.1037 24.1367 23.963 24.2461C23.8244 24.3535 23.6613 24.4395 23.4738 24.5039L23.1954 24.6504H21.8126L21.8068 23.9648H22.8351C22.9894 23.9648 23.1173 23.9375 23.2189 23.8828C23.3204 23.8281 23.3966 23.752 23.4474 23.6543C23.5001 23.5566 23.5265 23.4434 23.5265 23.3145C23.5265 23.1777 23.5011 23.0596 23.4503 22.96C23.3995 22.8604 23.3224 22.7842 23.2189 22.7314C23.1154 22.6787 22.9855 22.6523 22.8292 22.6523H22.1173V26.2295H21.2384V21.9639ZM23.6232 26.2295L22.6505 24.3281L23.5792 24.3223L24.5636 26.1885V26.2295H23.6232ZM25.4835 21.9639H26.2277L27.3234 25.0957L28.4191 21.9639H29.1632L27.6222 26.2295H27.0245L25.4835 21.9639ZM25.0822 21.9639H25.8234L25.9581 25.0166V26.2295H25.0822V21.9639ZM28.8234 21.9639H29.5675V26.2295H28.6886V25.0166L28.8234 21.9639ZM30.965 23.0596L31.4894 24.0234L32.0285 23.0596H32.9279L32.0314 24.6094L32.9689 26.2295H32.0665L31.4953 25.21L30.924 26.2295H30.0216L30.9591 24.6094L30.0626 23.0596H30.965Z" fill="#DAB46E"/>
<mask id="path-2-inside-1_629_3587" fill="white">
<path d="M14.3331 21.0851C13.772 23.5281 14.0436 26.0885 15.1049 28.3593C16.1661 30.6301 17.956 32.481 20.19 33.6176C22.424 34.7543 24.9739 35.1115 27.4343 34.6325C29.8946 34.1535 32.1242 32.8658 33.7686 30.974C35.413 29.0823 36.3778 26.6951 36.5096 24.192C36.6415 21.6889 35.9327 19.2136 34.4961 17.1596C33.0595 15.1056 30.9775 13.5908 28.581 12.856C26.1846 12.1213 23.6113 12.2087 21.2703 13.1044L21.6204 14.0196C23.7574 13.2019 26.1063 13.1221 28.2938 13.7928C30.4813 14.4635 32.3818 15.8463 33.6932 17.7212C35.0045 19.5961 35.6515 21.8556 35.5312 24.1405C35.4108 26.4253 34.5301 28.6044 33.0291 30.3312C31.5281 32.058 29.4929 33.2335 27.247 33.6707C25.0012 34.108 22.6736 33.7819 20.6344 32.7443C18.5951 31.7068 16.9613 30.0173 15.9925 27.9444C15.0238 25.8716 14.7758 23.5344 15.288 21.3045L14.3331 21.0851Z"/>
</mask>
<path d="M14.3331 21.0851C13.772 23.5281 14.0436 26.0885 15.1049 28.3593C16.1661 30.6301 17.956 32.481 20.19 33.6176C22.424 34.7543 24.9739 35.1115 27.4343 34.6325C29.8946 34.1535 32.1242 32.8658 33.7686 30.974C35.413 29.0823 36.3778 26.6951 36.5096 24.192C36.6415 21.6889 35.9327 19.2136 34.4961 17.1596C33.0595 15.1056 30.9775 13.5908 28.581 12.856C26.1846 12.1213 23.6113 12.2087 21.2703 13.1044L21.6204 14.0196C23.7574 13.2019 26.1063 13.1221 28.2938 13.7928C30.4813 14.4635 32.3818 15.8463 33.6932 17.7212C35.0045 19.5961 35.6515 21.8556 35.5312 24.1405C35.4108 26.4253 34.5301 28.6044 33.0291 30.3312C31.5281 32.058 29.4929 33.2335 27.247 33.6707C25.0012 34.108 22.6736 33.7819 20.6344 32.7443C18.5951 31.7068 16.9613 30.0173 15.9925 27.9444C15.0238 25.8716 14.7758 23.5344 15.288 21.3045L14.3331 21.0851Z" stroke="#DAB46E" stroke-width="4" mask="url(#path-2-inside-1_629_3587)"/>
<circle cx="11.2387" cy="11.2387" r="11.2387" fill="url(#paint0_linear_629_3587)"/>
<path d="M6.30189 9.03906V13.3047H5.42299V9.03906H6.30189ZM8.00111 10.8613V11.5469H6.06166V10.8613H8.00111ZM8.20619 9.03906V9.72754H6.06166V9.03906H8.20619ZM8.71596 9.03906H10.3068C10.6329 9.03906 10.9132 9.08789 11.1476 9.18555C11.3839 9.2832 11.5656 9.42773 11.6925 9.61914C11.8195 9.81055 11.8829 10.0459 11.8829 10.3252C11.8829 10.5537 11.8439 10.75 11.7658 10.9141C11.6896 11.0762 11.5812 11.2119 11.4406 11.3213C11.3019 11.4287 11.1388 11.5146 10.9513 11.5791L10.673 11.7256H9.29017L9.28432 11.04H10.3126C10.4669 11.04 10.5949 11.0127 10.6964 10.958C10.798 10.9033 10.8742 10.8271 10.9249 10.7295C10.9777 10.6318 11.004 10.5186 11.004 10.3896C11.004 10.2529 10.9787 10.1348 10.9279 10.0352C10.8771 9.93555 10.7999 9.85938 10.6964 9.80664C10.5929 9.75391 10.463 9.72754 10.3068 9.72754H9.59486V13.3047H8.71596V9.03906ZM11.1007 13.3047L10.1281 11.4033L11.0568 11.3975L12.0412 13.2637V13.3047H11.1007ZM12.9611 9.03906H13.7052L14.8009 12.1709L15.8966 9.03906H16.6408L15.0997 13.3047H14.5021L12.9611 9.03906ZM12.5597 9.03906H13.3009L13.4357 12.0918V13.3047H12.5597V9.03906ZM16.3009 9.03906H17.0451V13.3047H16.1662V12.0918L16.3009 9.03906Z" fill="#161C24"/>
<defs>
<linearGradient id="paint0_linear_629_3587" x1="11.2387" y1="0" x2="11.2387" y2="22.4773" gradientUnits="userSpaceOnUse">
<stop stop-color="#C69749"/>
<stop offset="1" stop-color="#DAB46E"/>
</linearGradient>
</defs>
</svg>
