<svg width="191" height="191" viewBox="0 0 191 191" fill="none" xmlns="http://www.w3.org/2000/svg">
<path d="M131.329 2.55288C129.183 1.97836 126.977 3.25219 126.402 5.39798C125.827 7.54378 127.1 9.74913 129.247 10.3244C154.156 17 173.776 36.6194 180.45 61.5275C180.931 63.3246 182.557 64.5102 184.333 64.5102C184.678 64.5102 185.028 64.4657 185.376 64.3719C187.523 63.7966 188.796 61.5912 188.221 59.4454C180.806 31.7695 159.006 9.96929 131.329 2.55288Z" fill="url(#paint0_linear_469_73812)"/>
<path d="M108.497 8.04426C109.499 8.07894 110.515 8.13398 111.515 8.20749C111.616 8.21541 111.717 8.21842 111.817 8.21842C113.903 8.21842 115.667 6.60757 115.824 4.49307C115.989 2.27716 114.326 0.348129 112.11 0.183387C111.003 0.101581 109.88 0.0405096 108.771 0.00281116C106.554 -0.0797483 104.689 1.66644 104.614 3.8865C104.538 6.10769 106.277 7.96924 108.497 8.04426Z" fill="url(#paint1_linear_469_73812)"/>
<path d="M91.7647 150.216C66.8555 143.541 47.2349 123.921 40.5601 99.0128C39.9852 96.8663 37.7779 95.5917 35.6333 96.1677C33.4871 96.743 32.2133 98.9491 32.7885 101.095C40.205 128.771 62.0048 150.571 89.6822 157.988C90.0305 158.081 90.3811 158.126 90.7257 158.126C92.5017 158.126 94.1276 156.941 94.609 155.143C95.1843 152.997 93.9105 150.791 91.7647 150.216Z" fill="#C69749"/>
<path d="M146.419 142.825C124.085 155.719 96.3379 155.719 74.0054 142.826C72.081 141.715 69.619 142.374 68.5098 144.298C67.399 146.223 68.0583 148.683 69.9823 149.794C94.7966 164.12 125.626 164.12 150.442 149.793C150.754 149.613 151.034 149.397 151.277 149.153C152.533 147.897 152.844 145.909 151.914 144.298C150.803 142.374 148.343 141.715 146.419 142.825Z" fill="#C69749"/>
<path d="M188.222 101.093C188.796 98.9479 187.522 96.7418 185.376 96.1665C183.231 95.5912 181.025 96.865 180.45 99.0112C173.774 123.921 154.155 143.541 129.247 150.214C127.45 150.696 126.264 152.321 126.264 154.098C126.264 154.443 126.309 154.793 126.403 155.141C126.978 157.287 129.183 158.561 131.329 157.986C159.005 150.571 180.805 128.771 188.222 101.093Z" fill="#C69749"/>
<path d="M40.0025 61.3242C46.6781 36.415 66.2979 16.7945 91.2059 10.1196C93.3525 9.54474 94.6271 7.3375 94.051 5.19284C93.4758 3.04667 91.2697 1.77284 89.1239 2.34812C61.4476 9.76452 39.6477 31.5644 32.2309 59.2418C32.1375 59.5901 32.0926 59.9407 32.0926 60.2853C32.0926 62.0612 33.2782 63.6872 35.076 64.1686C37.2218 64.7439 39.4276 63.47 40.0025 61.3242Z" fill="#C69749"/>
<path d="M47.3933 115.979C34.5002 93.6455 34.4997 65.8985 47.3925 43.5659C48.5038 41.6416 47.8443 39.1796 45.9205 38.0704C43.9962 36.9596 41.5355 37.6188 40.425 39.5429C26.0991 64.3572 26.0991 95.1868 40.4255 120.002C40.6057 120.315 40.8219 120.594 41.0655 120.838C42.3213 122.094 44.3094 122.405 45.921 121.474C47.8451 120.364 48.5041 117.903 47.3933 115.979Z" fill="#C69749"/>
<path d="M182.875 76.8183C182.84 77.82 182.785 78.8359 182.711 79.8361C182.704 79.9375 182.701 80.0381 182.701 80.138C182.701 82.2243 184.311 83.9885 186.426 84.1457C188.642 84.3101 190.571 82.6472 190.736 80.4317C190.817 79.3245 190.878 78.2015 190.916 77.0928C190.999 74.8753 189.253 73.0108 187.032 72.935C184.811 72.8592 182.95 74.5982 182.875 76.8183Z" fill="url(#paint2_linear_469_73812)"/>
<path d="M145.715 41.5996C142.215 41.5996 138.931 42.9556 136.469 45.4188L94.5017 87.3854L84.5429 77.4255C82.0804 74.9631 78.7969 73.6071 75.2973 73.6071C71.7974 73.6071 68.5135 74.9638 66.0514 77.4263C63.5882 79.8895 62.2314 83.173 62.2314 86.6726C62.2314 90.1721 63.5878 93.4556 66.051 95.9189L85.2836 115.151L85.4499 115.314C85.4785 115.343 85.5083 115.37 85.5381 115.398L85.7074 115.554C85.7319 115.578 85.7575 115.6 85.7831 115.622L85.9566 115.775C85.9803 115.795 86.0037 115.816 86.0278 115.835L86.2039 115.983C86.2272 116.002 86.2502 116.021 86.274 116.04L86.4523 116.183C86.4836 116.208 86.5156 116.232 86.5473 116.257L86.729 116.394C86.758 116.416 86.7878 116.437 86.8176 116.458L87.0019 116.589C87.0272 116.607 87.0525 116.625 87.0781 116.642L87.2647 116.768C87.2911 116.786 87.3178 116.803 87.3442 116.821L87.5342 116.942C87.5629 116.961 87.5919 116.979 87.6206 116.997L87.8125 117.113C87.8445 117.132 87.8773 117.151 87.9097 117.171L88.1035 117.28C88.1291 117.295 88.1544 117.309 88.1804 117.323L88.376 117.429C88.4043 117.444 88.4322 117.459 88.4605 117.473L88.6584 117.574C88.6904 117.591 88.7229 117.606 88.7553 117.622L88.9555 117.717C88.9845 117.731 89.0143 117.744 89.0441 117.758L89.2454 117.848C89.2759 117.862 89.3068 117.875 89.3377 117.889L89.5421 117.974C89.5684 117.984 89.5956 117.996 89.622 118.007L89.8263 118.087C89.8595 118.099 89.8923 118.112 89.9254 118.124L90.1335 118.199C90.1671 118.211 90.2003 118.223 90.2338 118.234L90.4412 118.303C90.4702 118.313 90.5 118.322 90.5297 118.332L90.7394 118.396C90.7721 118.406 90.8053 118.416 90.8389 118.425L91.0496 118.484C91.0719 118.491 91.0941 118.497 91.1167 118.502L91.3274 118.557C91.3697 118.568 91.4123 118.579 91.4545 118.589L91.6682 118.637C91.6916 118.642 91.7146 118.647 91.738 118.651L91.9517 118.696C91.9909 118.704 92.0294 118.712 92.0682 118.718L92.1862 118.74C92.2511 118.753 92.3163 118.764 92.3826 118.774L92.5979 118.807C92.6224 118.811 92.6465 118.815 92.671 118.818L92.887 118.846C92.9228 118.851 92.9587 118.855 92.9945 118.859L93.2105 118.882C93.2346 118.884 93.2591 118.887 93.284 118.888L93.5008 118.907C93.5422 118.911 93.5833 118.915 93.6248 118.917L93.8423 118.928C93.871 118.93 93.9 118.932 93.9283 118.933L94.145 118.941C94.1718 118.941 94.1989 118.942 94.2253 118.942L94.4428 118.945C94.4621 118.946 94.482 118.946 94.5013 118.946C94.5205 118.946 94.5405 118.946 94.5593 118.945L94.7769 118.942C94.8032 118.942 94.8304 118.941 94.8568 118.941L95.0739 118.933C95.1078 118.932 95.141 118.93 95.1749 118.928L95.3925 118.915C95.4241 118.913 95.4566 118.91 95.4886 118.908L95.7046 118.89C95.7329 118.888 95.7615 118.884 95.7894 118.882L96.0062 118.859C96.042 118.855 96.0778 118.851 96.1133 118.847L96.33 118.818C96.3557 118.815 96.3817 118.81 96.4073 118.807L96.6218 118.775C96.6878 118.764 96.7534 118.752 96.8182 118.739L96.9358 118.719C96.9732 118.712 97.0112 118.705 97.0482 118.697L97.2623 118.653C97.2917 118.646 97.3207 118.64 97.3501 118.633L97.5631 118.585C97.5941 118.577 97.6246 118.57 97.6551 118.562L97.867 118.507C97.896 118.5 97.9254 118.493 97.9548 118.484L98.1652 118.425C98.1995 118.415 98.2327 118.406 98.2666 118.396L98.4758 118.331C98.5056 118.322 98.535 118.312 98.5652 118.302L98.7733 118.233C98.8057 118.222 98.8389 118.21 98.8713 118.198L99.0794 118.122C99.1065 118.112 99.1337 118.102 99.1612 118.092L99.3659 118.013C99.4032 117.998 99.4413 117.983 99.4778 117.967L99.6814 117.882C99.7003 117.874 99.7191 117.865 99.7376 117.857L99.94 117.768C99.9796 117.75 100.018 117.733 100.056 117.714L100.255 117.619C100.283 117.606 100.311 117.592 100.338 117.578L100.537 117.477C100.567 117.462 100.597 117.446 100.627 117.43L100.823 117.324C100.849 117.31 100.875 117.296 100.9 117.281L101.094 117.171C101.128 117.152 101.161 117.132 101.194 117.112L101.386 116.996C101.416 116.978 101.446 116.959 101.476 116.94L101.665 116.818C101.687 116.803 101.709 116.789 101.731 116.774L101.919 116.648C101.947 116.63 101.974 116.61 102.002 116.591L102.186 116.46C102.217 116.437 102.247 116.416 102.278 116.393L102.459 116.256C102.49 116.232 102.52 116.209 102.551 116.184L102.729 116.042C102.748 116.026 102.767 116.011 102.787 115.995L102.963 115.849C103.014 115.807 103.064 115.763 103.112 115.718L103.222 115.621C103.243 115.603 103.264 115.584 103.284 115.565L103.455 115.409C103.485 115.381 103.516 115.352 103.546 115.323L103.712 115.161C103.743 115.131 103.774 115.1 103.804 115.069L154.961 63.9122C157.423 61.4497 158.779 58.1662 158.779 54.6666C158.779 51.1663 157.422 47.8828 154.96 45.4211C152.498 42.9556 149.215 41.5996 145.715 41.5996ZM149.273 58.2216L98.0359 109.458L97.7505 109.719L97.0663 110.205L96.2882 110.576L95.3182 110.832L94.5017 110.898L94.3821 110.896L93.5298 110.805L92.7091 110.573L91.836 110.143L91.1276 109.609L71.7405 90.2298C70.7969 89.2862 70.277 88.0237 70.277 86.6726C70.277 85.3222 70.7969 84.0593 71.7409 83.1154C72.6837 82.1718 73.9466 81.6523 75.2977 81.6523C76.6481 81.6523 77.9113 82.1718 78.8546 83.1146L91.6573 95.9189C92.4117 96.6732 93.4352 97.0977 94.502 97.0977C95.5689 97.0977 96.592 96.6732 97.3468 95.9189L142.158 51.1071C143.102 50.1643 144.365 49.6448 145.716 49.6448C147.066 49.6448 148.329 50.1643 149.273 51.1079C150.216 52.0507 150.736 53.3133 150.736 54.664C150.734 56.0155 150.215 57.2787 149.273 58.2216Z" fill="url(#paint3_linear_469_73812)"/>
<defs>
<linearGradient id="paint0_linear_469_73812" x1="157.312" y1="2.41504" x2="157.312" y2="64.5102" gradientUnits="userSpaceOnUse">
<stop stop-color="#DAB46E"/>
<stop offset="1" stop-color="#C69749"/>
</linearGradient>
<linearGradient id="paint1_linear_469_73812" x1="110.223" y1="0" x2="110.223" y2="8.21842" gradientUnits="userSpaceOnUse">
<stop stop-color="#DAB46E"/>
<stop offset="1" stop-color="#C69749"/>
</linearGradient>
<linearGradient id="paint2_linear_469_73812" x1="190.919" y1="78.5448" x2="182.701" y2="78.5448" gradientUnits="userSpaceOnUse">
<stop stop-color="#DAB46E"/>
<stop offset="1" stop-color="#C69749"/>
</linearGradient>
<linearGradient id="paint3_linear_469_73812" x1="110.505" y1="41.5996" x2="110.505" y2="118.946" gradientUnits="userSpaceOnUse">
<stop stop-color="#DAB46E"/>
<stop offset="1" stop-color="#C69749"/>
</linearGradient>
</defs>
</svg>
