<svg xmlns="http://www.w3.org/2000/svg" xmlns:xlink="http://www.w3.org/1999/xlink" width="16" height="16" viewBox="0 0 16 16">
  <defs>
    <clipPath id="clip-path">
      <rect id="Rectangle_816" data-name="Rectangle 816" width="16" height="16" transform="translate(-0.144)" fill="#dab46e"/>
    </clipPath>
  </defs>
  <g id="Search" transform="translate(0.144)" clip-path="url(#clip-path)">
    <g id="search-2" data-name="search">
      <g id="search-3" data-name="search">
        <g id="search-4" data-name="search">
          <rect id="Rectangle_815" data-name="Rectangle 815" width="16" height="16" transform="translate(-0.144)" fill="#dab46e" opacity="0"/>
          <path id="Path_1983" data-name="Path 1983" d="M14.807,13.86,12.54,11.6a5.28,5.28,0,0,0,1.127-3.267,5.333,5.333,0,1,0-5.333,5.333A5.28,5.28,0,0,0,11.6,12.54l2.26,2.267a.669.669,0,1,0,.947-.947ZM4.333,8.333a4,4,0,1,1,4,4,4,4,0,0,1-4-4Z" transform="translate(-1 -1)" fill="#dab46e"/>
        </g>
      </g>
    </g>
  </g>
</svg>
