<svg width="170" height="169" viewBox="0 0 170 169" fill="none" xmlns="http://www.w3.org/2000/svg">
<path d="M87.7893 28.707L123 63.9281L126.244 60.6875L85.4975 19.9443L44.7534 60.6875L47.9914 63.9281L83.2117 28.707L83.2117 144.553L87.7893 144.553L87.7893 28.707Z" fill="#DAB46E"/>
<path d="M170 84.5017C170 37.9064 132.091 -1.65705e-06 85.4922 -3.69395e-06C38.9029 -5.73044e-06 0.990462 37.9064 0.99046 84.5017C0.990458 131.097 38.9029 169 85.4922 169C132.091 169 170 131.097 170 84.5017ZM4.98835 84.5017C4.98836 40.1115 41.102 3.99443 85.4931 3.99443C129.893 3.99443 166.01 40.1116 166.01 84.5017C166.01 128.889 129.893 165.009 85.4965 165.009C41.1046 165.009 4.98835 128.889 4.98835 84.5017Z" fill="#DAB46E"/>
</svg>
