<svg width="24" height="24" viewBox="0 0 24 24" fill="none" xmlns="http://www.w3.org/2000/svg">
<path d="M10.5 0.866026C11.4282 0.330127 12.5718 0.330127 13.5 0.866025L20.8923 5.13397C21.8205 5.66987 22.3923 6.66025 22.3923 7.73205V16.2679C22.3923 17.3397 21.8205 18.3301 20.8923 18.866L13.5 23.134C12.5718 23.6699 11.4282 23.6699 10.5 23.134L3.1077 18.866C2.17949 18.3301 1.6077 17.3397 1.6077 16.268V7.73205C1.6077 6.66025 2.17949 5.66987 3.1077 5.13397L10.5 0.866026Z" fill="url(#paint0_linear_477_86393)"/>
<path d="M10.5 3.86603C11.4282 3.33013 12.5718 3.33013 13.5 3.86603L18.2942 6.63397C19.2224 7.16987 19.7942 8.16025 19.7942 9.23205V14.7679C19.7942 15.8397 19.2224 16.8301 18.2942 17.366L13.5 20.134C12.5718 20.6699 11.4282 20.6699 10.5 20.134L5.70577 17.366C4.77757 16.8301 4.20577 15.8397 4.20577 14.7679V9.23205C4.20577 8.16025 4.77757 7.16987 5.70577 6.63397L10.5 3.86603Z" fill="url(#paint1_linear_477_86393)" fill-opacity="0.25"/>
<defs>
<linearGradient id="paint0_linear_477_86393" x1="12" y1="0" x2="12" y2="24" gradientUnits="userSpaceOnUse">
<stop stop-color="#8C8C8C"/>
<stop offset="1" stop-color="#D4D2D5"/>
</linearGradient>
<linearGradient id="paint1_linear_477_86393" x1="12" y1="3" x2="12" y2="21" gradientUnits="userSpaceOnUse">
<stop stop-color="white"/>
<stop offset="1" stop-color="white" stop-opacity="0"/>
</linearGradient>
</defs>
</svg>
