<svg xmlns="http://www.w3.org/2000/svg" xmlns:xlink="http://www.w3.org/1999/xlink" width="24" height="24" viewBox="0 0 24 24">
  <defs>
    <clipPath id="clip-path">
      <rect id="Rectangle_810" data-name="Rectangle 810" width="24" height="24" transform="translate(59 230)" fill="#dab46e"/>
    </clipPath>
  </defs>
  <g id="Mask_Group_79" data-name="Mask Group 79" transform="translate(-59 -230)" clip-path="url(#clip-path)">
    <g id="direction" transform="translate(59 230)">
      <g id="Group_4647" data-name="Group 4647">
        <path id="Path_1969" data-name="Path 1969" d="M12,0A12,12,0,1,0,24,12,12.014,12.014,0,0,0,12,0Zm0,22.614A10.614,10.614,0,1,1,22.614,12,10.626,10.626,0,0,1,12,22.614Z" fill="#dab46e"/>
        <g id="Group_4646" data-name="Group 4646" transform="translate(-967.372 -301.106)">
          <path id="Path_1970" data-name="Path 1970" d="M1077.6,311.369c-.1-.1-.2-.2-.3-.3-.331-.33-.664-.658-.991-.992a.57.57,0,0,1,.2-.931.551.551,0,0,1,.62.134q1.142,1.139,2.279,2.283a.563.563,0,0,1-.1.88.589.589,0,0,1-.333.092q-1.1,0-2.2,0h-5.825c-.366,0-.731,0-1.1,0a.581.581,0,0,1-.582-.648.555.555,0,0,1,.388-.466.914.914,0,0,1,.246-.032q3.792,0,7.583,0h.1Z" transform="translate(-93.604)" fill="#dab46e"/>
          <path id="Path_1971" data-name="Path 1971" d="M975.346,501.869c.136.135.273.269.409.4.3.3.6.591.89.892a.571.571,0,0,1-.213.926.542.542,0,0,1-.6-.123c-.465-.459-.925-.923-1.388-1.385q-.439-.439-.879-.877a.6.6,0,0,1-.193-.462.565.565,0,0,1,.4-.51.964.964,0,0,1,.246-.031q3.658,0,7.316,0c.58,0,1.161,0,1.741,0a.574.574,0,0,1,.311,1.073.651.651,0,0,1-.338.075q-3.8,0-7.591,0c-.034,0-.069,0-.1,0Z" transform="translate(0 -187.022)" fill="#dab46e"/>
        </g>
        <path id="Path_1972" data-name="Path 1972" d="M9.2,0a9.2,9.2,0,1,0,9.2,9.2A9.21,9.21,0,0,0,9.2,0Zm0,17.337A8.137,8.137,0,1,1,17.337,9.2,8.146,8.146,0,0,1,9.2,17.337Z" transform="translate(2.8 2.8)" fill="#dab46e"/>
      </g>
    </g>
  </g>
</svg>
