<svg width="34" height="39" viewBox="0 0 34 39" fill="none" xmlns="http://www.w3.org/2000/svg">
<path fill-rule="evenodd" clip-rule="evenodd" d="M1.84345 28.0798H31.8726C32.8865 28.0798 33.716 28.9034 33.716 29.9099V36.9433C33.716 37.9499 32.8865 38.7734 31.8726 38.7734H1.84345C0.829551 38.7734 0 37.9499 0 36.9433V29.9099C0 28.9034 0.829551 28.0798 1.84345 28.0798ZM9.0456 22.5705H3.78224C3.84263 22.0562 4.02698 21.5702 4.3321 21.1159C4.63722 20.6615 5.20933 20.1251 6.05159 19.5066C6.56649 19.128 6.89386 18.8408 7.04006 18.642C7.18309 18.4464 7.25619 18.2571 7.25619 18.0835C7.25619 17.8911 7.18626 17.7301 7.04324 17.5944C6.90021 17.4588 6.72222 17.3925 6.5061 17.3925C6.28361 17.3925 6.09927 17.4619 5.95624 17.6039C5.81321 17.7459 5.71786 17.992 5.67019 18.3486L3.91574 18.2066C3.98566 17.7144 4.10962 17.3326 4.29396 17.058C4.4783 16.7835 4.73575 16.5721 5.06948 16.4238C5.40321 16.2755 5.86725 16.2029 6.45842 16.2029C7.07502 16.2029 7.55495 16.2723 7.89822 16.4143C8.24148 16.5532 8.51164 16.7677 8.70552 17.0549C8.90258 17.3452 9.00111 17.6702 9.00111 18.0267C9.00111 18.4085 8.88669 18.7714 8.6642 19.1217C8.43854 19.4687 8.02853 19.8505 7.43418 20.2671C7.08138 20.51 6.84618 20.6804 6.7254 20.7751C6.6078 20.8729 6.46796 20.9991 6.30586 21.1569H9.0456V22.5705ZM8.22241 2.16144V8.53217H6.45206V4.3639C6.16601 4.57847 5.8895 4.75202 5.61934 4.88454C5.34917 5.01707 5.01545 5.14644 4.60862 5.26634V3.84957C5.20615 3.6571 5.67019 3.42675 5.99756 3.15854C6.32811 2.89034 6.58556 2.55586 6.77308 2.16144H8.22241ZM5.5653 32.1061L3.90938 31.8126C4.04605 31.2888 4.30985 30.8881 4.70397 30.6073C5.09491 30.3296 5.64794 30.1876 6.36307 30.1876C7.18626 30.1876 7.78062 30.3391 8.14613 30.6451C8.51164 30.9512 8.69598 31.333 8.69598 31.7937C8.69598 32.0619 8.6197 32.308 8.4735 32.5257C8.32412 32.7435 8.10163 32.9359 7.80287 33.1032C8.0476 33.1631 8.23194 33.2326 8.36226 33.3146C8.57203 33.444 8.73413 33.6112 8.84855 33.8195C8.96614 34.0309 9.02335 34.2801 9.02335 34.5704C9.02335 34.9365 8.928 35.2836 8.73412 35.6212C8.54025 35.9557 8.26691 36.2144 7.90457 36.3942C7.54224 36.5741 7.06867 36.6656 6.48067 36.6656C5.90857 36.6656 5.45406 36.5993 5.12351 36.4637C4.79296 36.3311 4.51962 36.1355 4.30667 35.8768C4.09372 35.618 3.92845 35.293 3.81403 34.9018L5.56848 34.6683C5.63841 35.0185 5.74329 35.2646 5.8895 35.4003C6.03252 35.536 6.21687 35.6054 6.44253 35.6054C6.67455 35.6054 6.87161 35.5202 7.02735 35.3498C7.18309 35.1794 7.25937 34.9522 7.25937 34.6651C7.25937 34.3748 7.18309 34.1508 7.0337 33.9898C6.88432 33.8321 6.68091 33.75 6.42346 33.75C6.28679 33.75 6.09609 33.7847 5.85771 33.851L5.94988 32.6078C6.04523 32.6236 6.12152 32.6299 6.17555 32.6299C6.40121 32.6299 6.59191 32.5573 6.74129 32.4122C6.89386 32.267 6.97014 32.0966 6.97014 31.8978C6.97014 31.7085 6.91293 31.5539 6.79851 31.4434C6.68408 31.3299 6.52835 31.2731 6.32811 31.2731C6.12152 31.2731 5.95624 31.333 5.82593 31.4592C5.69562 31.5823 5.6098 31.7969 5.5653 32.1061ZM1.84345 0H19.5151C20.529 0 21.3586 0.823556 21.3586 1.83013V8.86349C21.3586 9.87006 20.529 10.6936 19.5151 10.6936H1.84345C0.829551 10.6936 0 9.87006 0 8.86349V1.83013C0 0.823556 0.829551 0 1.84345 0ZM1.84345 14.0415H25.6557C26.6696 14.0415 27.4991 14.865 27.4991 15.8716V22.905C27.4991 23.9115 26.6696 24.7351 25.6557 24.7351H1.84345C0.829551 24.7351 0 23.9115 0 22.905V15.8684C0 14.8619 0.829551 14.0415 1.84345 14.0415Z" fill="url(#paint0_linear_469_73970)"/>
<defs>
<linearGradient id="paint0_linear_469_73970" x1="16.858" y1="0" x2="16.858" y2="38.7734" gradientUnits="userSpaceOnUse">
<stop stop-color="#DAB46E"/>
<stop offset="1" stop-color="#C69749"/>
</linearGradient>
</defs>
</svg>
