<svg width="23" height="23" viewBox="0 0 23 23" fill="none" xmlns="http://www.w3.org/2000/svg">
<path d="M11.5 0C17.8513 0 23 5.14872 23 11.5C23 17.8513 17.8513 23 11.5 23C5.14872 23 0 17.8513 0 11.5C0 5.14872 5.14872 0 11.5 0Z" fill="#F0B90B"/>
<path d="M8.5248 10.2654L10.2661 8.52984L10.6331 8.16279L11.5033 7.29262L14.4665 10.2654L16.1915 8.52984L11.5033 3.83398L6.7998 8.52984L8.5248 10.2654Z" fill="white"/>
<path d="M11.5053 13.2301L13.2373 11.498L11.5053 9.76599L9.7732 11.498L11.5053 13.2301Z" fill="white"/>
<path d="M14.4665 12.7383L11.5023 15.7024L10.4616 14.6617L10.2699 14.47L8.5248 12.7383L6.7998 14.4633L11.5033 19.1591L16.1915 14.4633L14.4665 12.7383Z" fill="white"/>
<path d="M5.5658 13.234L7.29785 11.502L5.56582 9.76992L3.83377 11.502L5.5658 13.234Z" fill="white"/>
<path d="M17.4359 13.234L19.168 11.502L17.4359 9.7699L15.7039 11.502L17.4359 13.234Z" fill="white"/>
</svg>
