<svg width="9" height="9" viewBox="0 0 9 9" fill="none" xmlns="http://www.w3.org/2000/svg">
<path d="M1.82843 1.8288C1.26902 2.38821 0.888055 3.10094 0.733714 3.87686C0.579373 4.65279 0.658586 5.45705 0.961337 6.18796C1.26409 6.91886 1.77678 7.54358 2.43457 7.9831C3.09237 8.42263 3.86573 8.65722 4.65685 8.65722C5.44798 8.65722 6.22134 8.42263 6.87913 7.9831C7.53693 7.54358 8.04962 6.91886 8.35237 6.18796C8.65512 5.45705 8.73434 4.65279 8.57999 3.87686C8.42565 3.10094 8.04469 2.38821 7.48528 1.8288C6.73514 1.07865 5.71772 0.657226 4.65685 0.657226C3.59599 0.657226 2.57857 1.07865 1.82843 1.8288ZM7.1494 4.32135C7.24317 4.32135 7.3331 4.3586 7.3994 4.4249C7.46571 4.49121 7.50296 4.58113 7.50296 4.6749C7.50296 4.76867 7.46571 4.8586 7.3994 4.9249C7.3331 4.99121 7.24317 5.02846 7.1494 5.02846H5.02809L5.03162 7.15331C5.03162 7.19974 5.02248 7.24572 5.00471 7.28861C4.98694 7.33151 4.9609 7.37048 4.92807 7.40331C4.89524 7.43614 4.85626 7.46218 4.81337 7.47995C4.77047 7.49772 4.7245 7.50686 4.67807 7.50686C4.63164 7.50687 4.58566 7.49772 4.54277 7.47995C4.49987 7.46218 4.4609 7.43614 4.42807 7.40331C4.39524 7.37048 4.36919 7.33151 4.35143 7.28861C4.33366 7.24572 4.32451 7.19974 4.32451 7.15331L4.31744 5.02492L2.12718 5.01608C2.03341 5.01608 1.94348 4.97883 1.87718 4.91253C1.81088 4.84622 1.77363 4.7563 1.77363 4.66253C1.77363 4.56876 1.81088 4.47883 1.87718 4.41253C1.94348 4.34622 2.03341 4.30898 2.12718 4.30898L4.32098 4.32135V2.13993C4.32098 2.0935 4.33012 2.04752 4.34789 2.00463C4.36566 1.96173 4.3917 1.92276 4.42453 1.88993C4.45736 1.8571 4.49634 1.83105 4.53923 1.81328C4.58213 1.79552 4.6281 1.78637 4.67453 1.78637C4.72096 1.78637 4.76694 1.79552 4.80983 1.81329C4.85273 1.83105 4.8917 1.8571 4.92453 1.88993C4.95736 1.92276 4.9834 1.96173 5.00117 2.00463C5.01894 2.04752 5.02809 2.0935 5.02809 2.13993L5.02455 4.31781L7.1494 4.32135Z" fill="#DAB46E"/>
</svg>
