<svg width="36" height="41" viewBox="0 0 36 41" fill="none" xmlns="http://www.w3.org/2000/svg">
<path d="M34.673 9.17385L19.2827 0.34415C18.481 -0.114717 17.4931 -0.114717 16.6912 0.34415L1.29587 9.17385C0.493805 9.63271 0 10.4818 0 11.405V29.0593C0 29.977 0.493813 30.8315 1.29587 31.2904L16.6861 40.1151C17.4879 40.5739 18.4758 40.5739 19.2776 40.1151L34.6679 31.2904C35.4697 30.8316 35.9637 29.9824 35.9637 29.0593L35.9632 11.405C35.9686 10.4819 35.4748 9.63274 34.6727 9.17385H34.673ZM34.6943 28.3265C34.6943 29.2442 34.2005 30.0988 33.3984 30.5577L19.2832 38.649C18.4815 39.1079 17.4936 39.1079 16.6917 38.649L2.57071 30.5577C1.76894 30.0934 1.27514 29.2442 1.27514 28.3265V12.133C1.27514 11.2153 1.76895 10.3607 2.571 9.90185L16.6862 1.81049C17.488 1.35163 18.4759 1.35163 19.2777 1.81049L33.3936 9.90691C34.1954 10.3658 34.6895 11.2149 34.6895 12.138V28.3258L34.6943 28.3265Z" fill="#DAB46E"/>
<path d="M29.6611 14.8207L20.3158 20.1416C19.57 20.5654 19.1105 21.3498 19.1105 22.2026C19.1105 22.2026 19.1055 26.6171 19.1055 29.8619V30.0908C19.1055 31.6841 19.1055 32.9558 19.1105 33.2045C19.1203 34.018 18.9575 35.363 20.3551 34.6273L29.6958 29.3064C30.4415 28.8825 30.9011 28.0981 30.9011 27.2454C30.9011 27.2454 30.9061 22.8309 30.9061 19.586V19.3571C30.9061 17.7638 30.9061 16.4921 30.9011 16.2435C30.8963 15.4346 31.0591 14.0899 29.6614 14.8207H29.6611Z" fill="#DAB46E"/>
<path d="M6.24778 14.8207L15.1436 20.1416C15.8538 20.5654 16.2915 21.3498 16.2915 22.2026C16.2915 22.2026 16.2963 26.6171 16.2963 29.8619V30.0908C16.2963 31.6841 16.2963 32.9558 16.2915 33.2045C16.2822 34.018 16.4372 35.363 15.1061 34.6273L6.21028 29.3113C5.50007 28.8874 5.0624 28.1031 5.0624 27.2503C5.0624 27.2503 5.05762 22.8358 5.05762 19.591V19.3621C5.05762 17.7687 5.05762 16.4971 5.0624 16.2484C5.07171 15.4346 4.91643 14.0899 6.24778 14.8206V14.8207Z" fill="#DAB46E"/>
<path d="M17.7029 17.4202C18.1152 17.4202 18.5275 17.3156 18.8956 17.1111L27.853 12.0996C27.8971 12.0711 27.9365 12.0472 27.9659 12.0284C28.594 11.6196 29.242 11.163 27.7353 10.3072C27.6715 10.269 27.598 10.2263 27.5145 10.1836L18.8959 5.3667C18.5278 5.16217 18.1155 5.05762 17.7033 5.05762C17.291 5.05762 16.8787 5.16217 16.5106 5.3667L7.88734 10.1881C7.80882 10.2308 7.7353 10.2736 7.6665 10.3117C6.15978 11.1629 6.8076 11.6241 7.43595 12.033C7.46536 12.052 7.49975 12.0757 7.54886 12.1042L16.5062 17.1156C16.8791 17.3153 17.2914 17.4201 17.7036 17.4201L17.7029 17.4202Z" fill="#DAB46E"/>
</svg>
