<svg width="39" height="33" viewBox="0 0 39 33" fill="none" xmlns="http://www.w3.org/2000/svg">
<path d="M38.2383 9.40999C38.4172 9.63936 38.4107 9.96373 38.2236 10.1866L20.0087 31.8132C19.8923 31.9509 19.7224 32.0302 19.5435 32.0302C19.3645 32.0302 19.1946 31.9507 19.0783 31.8132L0.863414 10.1866C0.676362 9.96373 0.669884 9.63936 0.848765 9.40999L8.00468 0.235083C8.12018 0.0866916 8.29744 0 8.48442 0H30.6026C30.7897 0 30.9669 0.0868399 31.0824 0.235083L38.2383 9.40999ZM36.5038 9.1749L30.8018 1.8645L28.1777 9.1749H36.5038ZM21.2683 28.4185L36.4412 10.4037H27.7363L21.2683 28.4185ZM27.1027 8.55479L29.7333 1.22881H20.8699L27.1027 8.55479ZM19.5436 29.6095L26.4393 10.4036H12.6479L19.5436 29.6095ZM26.0237 9.1749L19.5436 1.55807L13.0634 9.1749H26.0237ZM11.9843 8.55479L18.2173 1.22881H9.35373L11.9843 8.55479ZM17.8188 28.4185L11.3509 10.4037H2.6459L17.8188 28.4185ZM10.9093 9.1749L8.28522 1.8645L2.58325 9.1749H10.9093Z" fill="#161C24"/>
</svg>
