<svg width="32" height="35" viewBox="0 0 32 35" fill="none" xmlns="http://www.w3.org/2000/svg">
<path fill-rule="evenodd" clip-rule="evenodd" d="M19.4519 0.640697C18.8079 1.28142 18.8079 2.3126 18.8079 4.375C18.8079 6.4374 18.8079 7.46858 19.4519 8.1093C20.0959 8.75 21.1324 8.75 23.2053 8.75H27.6027C29.6756 8.75 30.712 8.75 31.356 8.1093C32 7.46858 32 6.4374 32 4.375C32 2.3126 32 1.28142 31.356 0.640697C30.712 1.50807e-07 29.6756 0 27.6027 0H23.2053C21.1324 0 20.0959 1.50807e-07 19.4519 0.640697ZM0.64397 23.7281C1.51577e-07 24.3688 0 28.5626 0 30.625C0 32.6874 1.51577e-07 33.7186 0.64397 34.3593C1.28796 35 2.32442 35 4.39735 35H8.7947C10.8676 35 11.9041 35 12.5481 34.3593C13.1921 33.7186 13.1921 32.6874 13.1921 30.625C13.1921 28.5626 13.1921 24.3688 12.5481 23.7281C11.9041 23.0873 10.8676 23.0873 8.7947 23.0873H4.39735C2.32442 23.0873 1.28796 23.0873 0.64397 23.7281ZM18.8079 18.7123C18.8079 16.65 18.8079 15.6188 19.4519 14.9781C20.0959 14.3373 21.1324 14.3373 23.2053 14.3373H27.6027C29.6756 14.3373 30.712 14.3373 31.356 14.9781C32 15.6188 32 16.65 32 18.7123V30.625C32 32.6874 32 33.7186 31.356 34.3593C30.712 35 29.6756 35 27.6027 35H23.2053C21.1324 35 20.0959 35 19.4519 34.3593C18.8079 33.7186 18.8079 32.6874 18.8079 30.625V18.7123ZM0.64397 0.640697C1.51577e-07 1.28142 0 2.3126 0 4.375V13.125C0 15.1874 1.51577e-07 16.2186 0.64397 16.8593C1.28796 17.5 2.32442 17.5 4.39735 17.5H8.7947C10.8676 17.5 11.9041 17.5 12.5481 16.8593C13.1921 16.2186 13.1921 15.1874 13.1921 13.125V4.375C13.1921 2.3126 13.1921 1.28142 12.5481 0.640697C11.9041 1.50807e-07 10.8676 0 8.7947 0H4.39735C2.32442 0 1.28796 1.50807e-07 0.64397 0.640697Z" fill="url(#paint0_linear_629_3619)"/>
<defs>
<linearGradient id="paint0_linear_629_3619" x1="16" y1="0" x2="16" y2="35" gradientUnits="userSpaceOnUse">
<stop stop-color="#DAB46E"/>
<stop offset="1" stop-color="#C69749"/>
</linearGradient>
</defs>
</svg>
