<svg width="155" height="147" viewBox="0 0 155 147" fill="none" xmlns="http://www.w3.org/2000/svg">
<path d="M9.455 60.8375C8.41721 59.8005 7.83422 58.3943 7.83422 56.9279C7.83422 55.4616 8.41721 54.0553 9.455 53.0183L60.8929 1.62397L61.6679 0.971453C62.7344 0.23975 64.0239 -0.0956266 65.3122 0.0235767C66.6006 0.14278 67.8065 0.709032 68.7204 1.62397L69.3625 2.39815C70.0972 3.46407 70.4352 4.75327 70.3179 6.04212C70.2007 7.33096 69.6354 8.53813 68.7204 9.45423L26.7375 51.3926H149.464C150.932 51.3926 152.34 51.9752 153.379 53.0122C154.417 54.0493 155 55.4558 155 56.9224C155 58.389 154.417 59.7956 153.379 60.8326C152.34 61.8696 150.932 62.4523 149.464 62.4523H13.3632C11.8979 62.4519 10.4925 61.8713 9.455 60.8375ZM0 90.1015C0 88.6349 0.583225 87.2283 1.62137 86.1913C2.65952 85.1542 4.06755 84.5716 5.53571 84.5716H141.637C142.731 84.5719 143.8 84.8959 144.71 85.5029C145.62 86.1098 146.329 86.9725 146.749 87.9818C147.168 88.9912 147.278 90.1021 147.066 91.1742C146.854 92.2463 146.328 93.2316 145.556 94.0055L94.1071 145.4L93.3321 146.052C92.1929 146.82 90.8088 147.138 89.4483 146.945C88.0877 146.751 86.8475 146.06 85.968 145.005C85.0884 143.95 84.6322 142.607 84.6878 141.235C84.7433 139.863 85.3066 138.561 86.2686 137.581L128.296 95.6313H5.53571C4.06755 95.6313 2.65952 95.0487 1.62137 94.0117C0.583225 92.9746 0 91.5681 0 90.1015Z" fill="#DAB46E"/>
</svg>
