<svg width="100" height="100" viewBox="0 0 100 100" fill="none" xmlns="http://www.w3.org/2000/svg">
<rect x="0.5" y="0.5" width="99" height="99" rx="14.5" stroke="#DAB46E"/>
<path d="M78.6869 23.0261C73.1992 21.5557 67.5759 24.1738 65.1243 28.9914L54.6458 26.1837L51.4173 38.2324C45.5205 37.2741 39.7388 40.8766 38.1787 46.6988C36.6187 52.5211 39.8247 58.5321 45.4105 60.6503L42.8013 70.3878L34.8911 68.2683C36.3635 62.1477 32.6325 55.8961 26.4434 54.2377C20.1548 52.5527 13.6839 56.2364 12.0192 62.4493C10.3544 68.6623 14.1165 75.088 20.4051 76.773C25.9939 78.2705 31.7177 75.5224 34.0933 70.5317L44.5214 73.3259L47.7499 61.2771C53.6467 62.2357 59.4284 58.633 60.9885 52.8107C62.5486 46.9884 59.3427 40.9777 53.7567 38.8592L56.3658 29.1219L64.2616 31.2376C62.5969 37.4505 66.3588 43.8761 72.6486 45.5614C78.9372 47.2464 85.4081 43.5625 87.0728 37.3498C88.7375 31.1371 84.9755 24.7111 78.6869 23.0261ZM25 66C20.0018 64.6607 13.0354 68.015 14.3588 63.0762C15.682 58.1377 21.0018 54.6607 26 56C30.9982 57.3393 33.8131 62.9957 32.4898 67.9343C31.5 71 29.9982 67.3393 25 66ZM58.6491 52.1839C57.3258 57.1225 52.1813 60.0504 47.1837 58.7113C42.1853 57.372 39.1948 52.2645 40.5181 47.3257C41.8413 42.3876 46.9852 39.4592 51.9834 40.7984C56.9811 42.1375 59.9722 47.2458 58.6491 52.1839ZM75.5 36C70.5014 34.6606 65.2779 36.8025 66.601 31.8644C67.9242 26.9262 73.0687 23.9981 78.0676 25.3375C83.0664 26.6769 86.0565 31.7849 84.7334 36.723C83.4103 41.661 80.499 37.3395 75.5 36Z" fill="#C69749"/>
</svg>
