<svg width="213" height="213" viewBox="0 0 213 213" fill="none" xmlns="http://www.w3.org/2000/svg">
<path d="M146.518 2.84812C144.124 2.20715 141.663 3.62831 141.021 6.02228C140.379 8.41624 141.801 10.8767 144.195 11.5185C171.986 18.9662 193.875 40.8547 201.32 68.6435C201.857 70.6485 203.671 71.9712 205.652 71.9712C206.037 71.9712 206.428 71.9216 206.817 71.8168C209.211 71.175 210.632 68.7146 209.99 66.3206C201.718 35.4438 177.397 11.1223 146.518 2.84812Z" fill="url(#paint0_linear_150_5012)"/>
<path d="M121.045 8.97462C122.162 9.01332 123.296 9.07473 124.412 9.15674C124.525 9.16557 124.637 9.16894 124.748 9.16894C127.076 9.16894 129.044 7.37178 129.22 5.01272C129.403 2.54052 127.548 0.388392 125.076 0.204596C123.841 0.113329 122.588 0.0451947 121.351 0.00313629C118.877 -0.0889717 116.797 1.85918 116.712 4.336C116.628 6.81408 118.568 8.89093 121.045 8.97462Z" fill="url(#paint1_linear_150_5012)"/>
<path d="M102.378 167.59C74.5874 160.142 52.6977 138.253 45.2508 110.464C44.6094 108.07 42.1469 106.648 39.7542 107.29C37.3598 107.932 35.9387 110.393 36.5805 112.787C44.8546 143.664 69.1758 167.986 100.054 176.26C100.443 176.364 100.834 176.414 101.218 176.414C103.2 176.414 105.014 175.092 105.551 173.086C106.193 170.692 104.772 168.231 102.378 167.59Z" fill="#C69749"/>
<path d="M163.353 159.344C138.436 173.729 107.48 173.729 82.5645 159.345C80.4175 158.105 77.6708 158.841 76.4333 160.987C75.194 163.134 75.9295 165.88 78.0761 167.119C105.76 183.101 140.156 183.101 167.841 167.118C168.19 166.917 168.502 166.676 168.773 166.404C170.174 165.003 170.522 162.785 169.483 160.987C168.244 158.84 165.499 158.105 163.353 159.344Z" fill="#C69749"/>
<path d="M209.991 112.786C210.632 110.392 209.211 107.931 206.817 107.289C204.423 106.647 201.962 108.068 201.321 110.463C193.873 138.253 171.984 160.142 144.196 167.588C142.191 168.125 140.868 169.938 140.868 171.92C140.868 172.305 140.917 172.696 141.022 173.084C141.664 175.479 144.124 176.9 146.518 176.258C177.395 167.986 201.717 143.664 209.991 112.786Z" fill="#C69749"/>
<path d="M44.6288 68.417C52.0766 40.6269 73.9655 18.7372 101.754 11.2903C104.149 10.6489 105.571 8.18639 104.928 5.79368C104.287 3.3993 101.825 1.97814 99.4314 2.61995C68.5542 10.8941 44.2331 35.2152 35.9585 66.0937C35.8542 66.4823 35.8041 66.8735 35.8041 67.2579C35.8041 69.2393 37.1269 71.0533 39.1326 71.5903C41.5266 72.2322 43.9874 70.811 44.6288 68.417Z" fill="#C69749"/>
<path d="M52.8746 129.393C38.4903 104.476 38.4897 73.5197 52.8737 48.6042C54.1135 46.4573 53.3778 43.7106 51.2315 42.4731C49.0845 41.2338 46.3393 41.9693 45.1003 44.1159C29.1175 71.8001 29.1175 106.195 45.1009 133.881C45.3019 134.229 45.5431 134.541 45.8149 134.813C47.216 136.214 49.434 136.562 51.232 135.523C53.3787 134.284 54.1138 131.539 52.8746 129.393Z" fill="#C69749"/>
<path d="M204.025 85.7033C203.987 86.8208 203.925 87.9542 203.843 89.07C203.834 89.1832 203.831 89.2955 203.831 89.4069C203.831 91.7344 205.628 93.7028 207.987 93.8782C210.459 94.0615 212.612 92.2063 212.795 89.7346C212.887 88.4993 212.955 87.2464 212.997 86.0095C213.089 83.5356 211.141 81.4554 208.664 81.3708C206.186 81.2863 204.109 83.2264 204.025 85.7033Z" fill="url(#paint2_linear_150_5012)"/>
<path d="M162.568 46.4111C158.663 46.4111 155 47.924 152.252 50.6721L105.431 97.4924L94.3208 86.3805C91.5736 83.6333 87.9103 82.1204 84.006 82.1204C80.1013 82.1204 76.4376 83.6341 73.6907 86.3814C70.9426 89.1295 69.429 92.7928 69.429 96.6971C69.429 100.601 70.9422 104.265 73.6903 107.013L95.1473 128.469L95.3328 128.651C95.3647 128.683 95.3979 128.714 95.4312 128.744L95.62 128.919C95.6474 128.945 95.676 128.971 95.7046 128.995L95.898 129.165C95.9245 129.188 95.9506 129.211 95.9775 129.232L96.1739 129.397C96.2 129.418 96.2257 129.44 96.2522 129.461L96.4511 129.62C96.486 129.649 96.5217 129.676 96.5571 129.703L96.7598 129.856C96.7922 129.88 96.8254 129.903 96.8586 129.927L97.0643 130.074C97.0925 130.093 97.1207 130.113 97.1493 130.133L97.3575 130.273C97.3869 130.293 97.4168 130.313 97.4462 130.332L97.6582 130.468C97.6901 130.488 97.7225 130.508 97.7545 130.528L97.9686 130.658C98.0043 130.68 98.0409 130.701 98.0771 130.722L98.2933 130.845C98.3219 130.861 98.35 130.877 98.3791 130.893L98.5973 131.01C98.6289 131.027 98.66 131.044 98.6915 131.06L98.9124 131.172C98.9481 131.191 98.9843 131.208 99.0204 131.226L99.2438 131.332C99.2762 131.347 99.3094 131.362 99.3426 131.378L99.5672 131.479C99.6013 131.493 99.6358 131.508 99.6702 131.524L99.8982 131.618C99.9276 131.63 99.9579 131.643 99.9874 131.655L100.215 131.744C100.252 131.758 100.289 131.773 100.326 131.786L100.558 131.87C100.596 131.883 100.633 131.897 100.67 131.909L100.901 131.986C100.934 131.997 100.967 132.007 101 132.018L101.234 132.09C101.271 132.101 101.308 132.112 101.345 132.122L101.58 132.188C101.605 132.195 101.63 132.202 101.655 132.208L101.89 132.27C101.937 132.282 101.985 132.294 102.032 132.305L102.27 132.358C102.296 132.364 102.322 132.369 102.348 132.374L102.587 132.424C102.63 132.433 102.673 132.442 102.717 132.449L102.848 132.473C102.921 132.488 102.993 132.5 103.067 132.512L103.307 132.549C103.335 132.552 103.362 132.557 103.389 132.56L103.63 132.591C103.67 132.597 103.71 132.602 103.75 132.606L103.991 132.632C104.018 132.634 104.045 132.637 104.073 132.639L104.315 132.66C104.361 132.665 104.407 132.668 104.453 132.67L104.696 132.684C104.728 132.685 104.76 132.687 104.792 132.688L105.034 132.697C105.063 132.698 105.094 132.699 105.123 132.699L105.366 132.702C105.387 132.703 105.41 132.703 105.431 132.703C105.452 132.703 105.475 132.703 105.496 132.702L105.738 132.699C105.768 132.699 105.798 132.698 105.828 132.697L106.07 132.688C106.108 132.687 106.145 132.686 106.183 132.683L106.425 132.669C106.461 132.666 106.497 132.663 106.533 132.661L106.773 132.641C106.805 132.638 106.837 132.634 106.868 132.632L107.11 132.606C107.15 132.602 107.19 132.597 107.229 132.592L107.471 132.56C107.5 132.557 107.529 132.552 107.557 132.548L107.797 132.512C107.87 132.501 107.944 132.487 108.016 132.472L108.147 132.45C108.189 132.442 108.231 132.434 108.272 132.425L108.511 132.376C108.544 132.369 108.577 132.362 108.609 132.354L108.847 132.3C108.881 132.292 108.916 132.284 108.95 132.274L109.186 132.214C109.218 132.206 109.251 132.197 109.284 132.187L109.519 132.122C109.557 132.111 109.594 132.101 109.632 132.089L109.865 132.016C109.898 132.007 109.931 131.996 109.965 131.985L110.197 131.908C110.233 131.895 110.27 131.882 110.306 131.869L110.539 131.784C110.569 131.773 110.599 131.762 110.63 131.75L110.858 131.662C110.9 131.646 110.942 131.629 110.983 131.611L111.21 131.516C111.231 131.507 111.252 131.497 111.273 131.489L111.499 131.389C111.543 131.369 111.585 131.35 111.628 131.329L111.85 131.223C111.881 131.208 111.912 131.192 111.943 131.177L112.165 131.064C112.198 131.047 112.232 131.03 112.265 131.011L112.484 130.894C112.512 130.878 112.541 130.862 112.57 130.846L112.786 130.723C112.824 130.701 112.861 130.679 112.898 130.657L113.112 130.527C113.145 130.507 113.179 130.486 113.212 130.465L113.423 130.329C113.448 130.313 113.473 130.297 113.497 130.28L113.706 130.14C113.738 130.119 113.768 130.097 113.799 130.075L114.005 129.929C114.039 129.904 114.073 129.88 114.107 129.855L114.309 129.702C114.344 129.676 114.378 129.649 114.411 129.622L114.61 129.463C114.632 129.445 114.653 129.428 114.675 129.411L114.871 129.248C114.928 129.201 114.984 129.152 115.038 129.102L115.161 128.994C115.184 128.974 115.207 128.953 115.23 128.932L115.42 128.757C115.454 128.725 115.488 128.694 115.522 128.661L115.707 128.48C115.742 128.447 115.776 128.412 115.809 128.377L172.883 71.3043C175.63 68.557 177.143 64.8937 177.142 60.9894C177.142 57.0843 175.629 53.421 172.882 50.6746C170.136 47.924 166.473 46.4111 162.568 46.4111ZM166.537 64.9555L109.374 122.118L109.056 122.409L108.293 122.951L107.425 123.365L106.342 123.651L105.431 123.724L105.298 123.722L104.347 123.62L103.432 123.362L102.457 122.882L101.667 122.286L80.0378 100.666C78.9851 99.613 78.4051 98.2044 78.4051 96.6971C78.4051 95.1905 78.9851 93.7816 80.0382 92.7284C81.0901 91.6757 82.499 91.0961 84.0064 91.0961C85.5129 91.0961 86.9223 91.6757 87.9746 92.7276L102.258 107.013C103.1 107.854 104.242 108.328 105.432 108.328C106.622 108.328 107.764 107.854 108.606 107.013L158.6 57.0183C159.652 55.9664 161.061 55.3868 162.569 55.3868C164.075 55.3868 165.484 55.9664 166.538 57.0191C167.59 58.071 168.169 59.4795 168.169 60.9865C168.167 62.4943 167.589 63.9037 166.537 64.9555Z" fill="url(#paint3_linear_150_5012)"/>
<defs>
<linearGradient id="paint0_linear_150_5012" x1="175.506" y1="2.69434" x2="175.506" y2="71.9712" gradientUnits="userSpaceOnUse">
<stop stop-color="#DAB46E"/>
<stop offset="1" stop-color="#C69749"/>
</linearGradient>
<linearGradient id="paint1_linear_150_5012" x1="122.971" y1="0" x2="122.971" y2="9.16894" gradientUnits="userSpaceOnUse">
<stop stop-color="#DAB46E"/>
<stop offset="1" stop-color="#C69749"/>
</linearGradient>
<linearGradient id="paint2_linear_150_5012" x1="213" y1="87.6294" x2="203.831" y2="87.6294" gradientUnits="userSpaceOnUse">
<stop stop-color="#DAB46E"/>
<stop offset="1" stop-color="#C69749"/>
</linearGradient>
<linearGradient id="paint3_linear_150_5012" x1="123.286" y1="46.4111" x2="123.286" y2="132.703" gradientUnits="userSpaceOnUse">
<stop stop-color="#DAB46E"/>
<stop offset="1" stop-color="#C69749"/>
</linearGradient>
</defs>
</svg>
