<svg width="100" height="100" viewBox="0 0 100 100" fill="none" xmlns="http://www.w3.org/2000/svg">
<rect x="0.5" y="0.5" width="99" height="99" rx="14.5" fill="#161C24" stroke="#DAB46E"/>
<path d="M79.703 30.3255L52.315 14.6124C50.8882 13.7959 49.1301 13.7959 47.7032 14.6124L20.3061 30.3255C18.8788 31.1421 18 32.6531 18 34.2959V65.7131C18 67.3462 18.8788 68.8669 20.3061 69.6835L47.6941 85.3876C49.1209 86.2041 50.879 86.2041 52.3059 85.3876L79.6939 69.6835C81.1207 68.8669 82 67.3559 82 65.7131L81.999 34.2959C82.0086 32.6533 81.1298 31.1421 79.7025 30.3255H79.703ZM79.7409 64.409C79.7409 66.0422 78.8621 67.5628 77.4348 68.3795L52.3159 82.7786C50.8891 83.5952 49.131 83.5952 47.7041 82.7786L22.5748 68.3795C21.148 67.5534 20.2692 66.0422 20.2692 64.409V35.5915C20.2692 33.9583 21.148 32.4377 22.5753 31.621L47.6942 17.2219C49.121 16.4053 50.8791 16.4053 52.306 17.2219L77.4263 31.63C78.8531 32.4466 79.7324 33.9577 79.7324 35.6005V64.4078L79.7409 64.409Z" fill="url(#paint0_linear_23_582)"/>
<path d="M70.7845 40.3743L54.1538 49.8432C52.8267 50.5975 52.0089 51.9934 52.0089 53.5109C52.0089 53.5109 52 61.3668 52 67.1412V67.5486C52 70.384 52 72.647 52.0089 73.0895C52.0263 74.5374 51.7366 76.9308 54.2239 75.6215L70.8462 66.1526C72.1732 65.3983 72.9911 64.0024 72.9911 62.4849C72.9911 62.4849 73 54.629 73 48.8546V48.4472C73 45.6118 73 43.3488 72.9911 42.9063C72.9826 41.4668 73.2723 39.0738 70.785 40.3743H70.7845Z" fill="url(#paint1_linear_23_582)"/>
<path d="M29.118 40.3742L44.9487 49.8432C46.2126 50.5975 46.9915 51.9934 46.9915 53.5109C46.9915 53.5109 47 61.3668 47 67.1412V67.5486C47 70.384 47 72.647 46.9915 73.0895C46.9749 74.5374 47.2508 76.9308 44.882 75.6215L29.0512 66.1614C27.7874 65.4071 27.0085 64.0112 27.0085 62.4937C27.0085 62.4937 27 54.6378 27 48.8633V48.456C27 45.6206 27 43.3576 27.0085 42.915C27.0251 41.4667 26.7487 39.0738 29.118 40.3741V40.3742Z" fill="url(#paint2_linear_23_582)"/>
<path d="M49.5037 45C50.2373 45 50.971 44.8139 51.6261 44.45L67.5664 35.5318C67.6449 35.481 67.715 35.4385 67.7673 35.405C68.8851 34.6775 70.0383 33.8649 67.357 32.342C67.2435 32.2741 67.1126 32.198 66.964 32.122L51.6267 23.55C50.9715 23.1861 50.2379 23 49.5043 23C48.7706 23 48.0369 23.1861 47.3818 23.55L32.0361 32.1301C31.8964 32.2061 31.7656 32.2822 31.6431 32.3501C28.9618 33.8648 30.1147 34.6855 31.2329 35.4131C31.2852 35.4471 31.3464 35.4892 31.4338 35.5399L47.374 44.4581C48.0376 44.8134 48.7713 45 49.5048 45L49.5037 45Z" fill="url(#paint3_linear_23_582)"/>
<defs>
<linearGradient id="paint0_linear_23_582" x1="50" y1="14" x2="50" y2="86" gradientUnits="userSpaceOnUse">
<stop stop-color="#C69749"/>
<stop offset="1" stop-color="#DAB46E"/>
</linearGradient>
<linearGradient id="paint1_linear_23_582" x1="62.5" y1="40" x2="62.5" y2="76" gradientUnits="userSpaceOnUse">
<stop stop-color="#C69749"/>
<stop offset="1" stop-color="#DAB46E"/>
</linearGradient>
<linearGradient id="paint2_linear_23_582" x1="37" y1="40" x2="37" y2="76" gradientUnits="userSpaceOnUse">
<stop stop-color="#C69749"/>
<stop offset="1" stop-color="#DAB46E"/>
</linearGradient>
<linearGradient id="paint3_linear_23_582" x1="49.5" y1="23" x2="49.5" y2="45" gradientUnits="userSpaceOnUse">
<stop stop-color="#C69749"/>
<stop offset="1" stop-color="#DAB46E"/>
</linearGradient>
</defs>
</svg>
