<svg width="110" height="115" viewBox="0 0 110 115" fill="none" xmlns="http://www.w3.org/2000/svg">
<path d="M57.5015 26.9017C64.9305 26.9017 70.9529 20.8796 70.9529 13.4509C70.9529 6.02215 64.9305 0 57.5015 0C50.0726 0 44.0502 6.02215 44.0502 13.4509C44.0502 20.8796 50.0726 26.9017 57.5015 26.9017Z" fill="#DAB46E"/>
<path d="M57.5022 115C61.9591 115 65.5721 111.387 65.5721 106.93C65.5721 102.474 61.9591 98.8608 57.5022 98.8608C53.0453 98.8608 49.4323 102.474 49.4323 106.93C49.4323 111.387 53.0453 115 57.5022 115Z" fill="#DAB46E"/>
<path d="M24.451 39.244C31.1375 39.244 36.5581 33.8237 36.5581 27.1374C36.5581 20.4511 31.1375 15.0308 24.451 15.0308C17.7644 15.0308 12.3439 20.4511 12.3439 27.1374C12.3439 33.8237 17.7644 39.244 24.451 39.244Z" fill="#DAB46E"/>
<path d="M90.5541 99.9606C94.2686 99.9606 97.2797 96.9495 97.2797 93.2352C97.2797 89.5208 94.2686 86.5098 90.5541 86.5098C86.8396 86.5098 83.8284 89.5208 83.8284 93.2352C83.8284 96.9495 86.8396 99.9606 90.5541 99.9606Z" fill="#DAB46E"/>
<path d="M10.7585 70.9507C16.7002 70.9507 21.5169 66.1341 21.5169 60.1926C21.5169 54.2511 16.7002 49.4346 10.7585 49.4346C4.81673 49.4346 0 54.2511 0 60.1926C0 66.1341 4.81673 70.9507 10.7585 70.9507Z" fill="#DAB46E"/>
<path d="M104.242 65.5652C107.211 65.5652 109.619 63.1579 109.619 60.1884C109.619 57.2188 107.211 54.8115 104.242 54.8115C101.272 54.8115 98.8646 57.2188 98.8646 60.1884C98.8646 63.1579 101.272 65.5652 104.242 65.5652Z" fill="#DAB46E"/>
<path d="M17.7938 86.5882C14.1145 90.2674 14.1145 96.2203 17.7938 99.8994C21.4687 103.579 27.4306 103.579 31.1055 99.8994C34.7847 96.2203 34.7847 90.2674 31.1055 86.5882C27.4306 82.9047 21.473 82.8698 17.7938 86.5882Z" fill="#DAB46E"/>
<path d="M90.5505 31.1703C92.7777 31.1703 94.5833 29.3648 94.5833 27.1376C94.5833 24.9105 92.7777 23.105 90.5505 23.105C88.3232 23.105 86.5177 24.9105 86.5177 27.1376C86.5177 29.3648 88.3232 31.1703 90.5505 31.1703Z" fill="#DAB46E"/>
</svg>
