<svg width="82" height="82" viewBox="0 0 82 82" fill="none" xmlns="http://www.w3.org/2000/svg">
<path d="M69.6868 14.0261C64.1992 12.5557 58.5759 15.1738 56.1242 19.9914L45.6457 17.1837L42.4173 29.2324C36.5204 28.2741 30.7387 31.8766 29.1787 37.6988C27.6186 43.5211 30.8246 49.5321 36.4104 51.6503L33.8013 61.3878L25.8911 59.2683C27.3634 53.1477 23.6324 46.8961 17.4433 45.2377C11.1548 43.5527 4.68387 47.2364 3.01913 53.4493C1.35435 59.6623 5.11644 66.088 11.405 67.773C16.9938 69.2705 22.7177 66.5224 25.0932 61.5317L35.5214 64.3259L38.7498 52.2771C44.6466 53.2357 50.4284 49.633 51.9884 43.8107C53.5485 37.9884 50.3426 31.9777 44.7567 29.8592L47.3658 20.1219L55.2616 22.2376C53.5968 28.4505 57.3587 34.8761 63.6485 36.5614C69.9371 38.2464 76.4081 34.5625 78.0727 28.3498C79.7374 22.1371 75.9754 15.7111 69.6868 14.0261ZM15.9999 57C11.0017 55.6607 4.03537 59.015 5.35872 54.0762C6.68197 49.1377 12.0017 45.6607 16.9999 47C21.9982 48.3393 24.813 53.9957 23.4897 58.9343C22.4999 62 20.9982 58.3393 15.9999 57ZM49.649 43.1839C48.3257 48.1225 43.1813 51.0504 38.1836 49.7113C33.1852 48.372 30.1947 43.2645 31.5181 38.3257C32.8412 33.3876 37.9852 30.4592 42.9834 31.7984C47.981 33.1375 50.9722 38.2458 49.649 43.1839ZM66.4999 27C61.5013 25.6606 56.2778 27.8025 57.601 22.8644C58.9242 17.9262 64.0687 14.9981 69.0675 16.3375C74.0663 17.6769 77.0565 22.7849 75.7333 27.723C74.4102 32.661 71.499 28.3395 66.4999 27Z" fill="white"/>
</svg>
