<svg width="76" height="59" viewBox="0 0 76 59" fill="none" xmlns="http://www.w3.org/2000/svg">
<path d="M62.3513 17.2477L50.3254 27.993C50.0238 28.2624 49.9202 28.6898 50.0639 29.0674C50.208 29.4451 50.5701 29.6947 50.9741 29.6947L54.2726 29.6947L54.2726 48.1722C54.2726 48.7105 54.7086 49.1469 55.2467 49.1469C55.7848 49.1469 56.2208 48.7105 56.2208 48.1722L56.2208 28.7201C56.2208 28.1818 55.7848 27.7454 55.2467 27.7454L53.5274 27.7454L63 19.2814L72.4727 27.7454L70.7533 27.7454C70.2152 27.7454 69.7792 28.1818 69.7792 28.7201L69.7792 57.0507L56.2209 57.0507L56.2209 52.0707C56.2209 51.5324 55.7849 51.096 55.2468 51.096C54.7087 51.096 54.2727 51.5324 54.2727 52.0707L54.2727 58.0254C54.2727 58.5636 54.7087 59 55.2468 59L70.7533 59C71.2914 59 71.7274 58.5636 71.7274 58.0254L71.7274 29.6946L75.0259 29.6946C75.4298 29.6946 75.7919 29.4451 75.9361 29.0673C75.9792 28.9541 76 28.8366 76 28.7201C76 28.4477 75.8858 28.1814 75.6747 27.9928L63.6488 17.2475C63.2793 16.9175 62.7208 16.9175 62.3513 17.2477Z" fill="white"/>
<path d="M13.1238 30.2368L24.6871 40.5098C24.9771 40.7673 25.0768 41.1759 24.9385 41.537C24.8 41.898 24.4519 42.1367 24.0634 42.1367L20.8917 42.1367L20.8917 48.6482C20.8917 49.1628 20.4725 49.58 19.9551 49.58C19.4377 49.58 19.0185 49.1628 19.0185 48.6482L19.0185 41.2049C19.0185 40.6903 19.4377 40.2731 19.9551 40.2731L21.6083 40.2731L12.5 32.1812L3.39168 40.2731L5.04488 40.2731C5.56226 40.2731 5.9815 40.6903 5.9815 41.2049L5.9815 57.1364L19.0184 57.1364L19.0184 52.3753C19.0184 51.8607 19.4376 51.4435 19.955 51.4435C20.4724 51.4435 20.8916 51.8607 20.8916 52.3753L20.8916 58.0682C20.8916 58.5828 20.4724 59 19.955 59L5.04488 59C4.52749 59 4.10826 58.5828 4.10826 58.0682L4.10826 42.1366L0.936619 42.1366C0.548235 42.1366 0.200063 41.898 0.0614431 41.5369C0.0199821 41.4286 4.49294e-07 41.3163 4.50623e-07 41.2049C4.53729e-07 40.9445 0.109773 40.6899 0.312832 40.5096L11.8762 30.2367C12.2315 29.9211 12.7685 29.9211 13.1238 30.2368Z" fill="white"/>
<path d="M37.3513 0.25425L25.3254 11.2849C25.0238 11.5615 24.9202 12.0002 25.0639 12.3879C25.208 12.7756 25.5701 13.0318 25.9741 13.0318L29.2726 13.0318L29.2726 18.3847C29.2726 18.9372 29.7086 19.3852 30.2467 19.3852C30.7848 19.3852 31.2208 18.9372 31.2208 18.3847L31.2208 12.0313C31.2208 11.4787 30.7848 11.0308 30.2467 11.0308L28.5274 11.0308L38 2.34202L47.4726 11.0308L45.7533 11.0308C45.2152 11.0308 44.7792 11.4787 44.7792 12.0313L44.7792 56.9989L31.2209 56.9989L31.2209 22.3867C31.2209 21.8341 30.7849 21.3861 30.2468 21.3861C29.7087 21.3861 29.2727 21.8341 29.2727 22.3867L29.2727 57.9995C29.2727 58.552 29.7087 59 30.2468 59L45.7533 59C46.2914 59 46.7274 58.552 46.7274 57.9995L46.7274 13.0317L50.0259 13.0317C50.4298 13.0317 50.7919 12.7756 50.9361 12.3877C50.9792 12.2716 51 12.151 51 12.0313C51 11.7517 50.8858 11.4783 50.6747 11.2848L38.6488 0.254116C38.2793 -0.0847308 37.7208 -0.08473 37.3513 0.25425Z" fill="white"/>
</svg>
