<svg width="60" height="69" viewBox="0 0 60 69" fill="none" xmlns="http://www.w3.org/2000/svg">
<path fill-rule="evenodd" clip-rule="evenodd" d="M3.28054 49.97H56.7195C58.5238 49.97 60 51.4355 60 53.2268V65.7432C60 67.5344 58.5238 69 56.7195 69H3.28054C1.47624 69 0 67.5344 0 65.7432V53.2268C0 51.4355 1.47624 49.97 3.28054 49.97ZM16.0973 40.1658H6.73077C6.83823 39.2505 7.16629 38.3857 7.70928 37.5771C8.25226 36.7686 9.27036 35.814 10.7692 34.7134C11.6855 34.0396 12.2681 33.5286 12.5283 33.1748C12.7828 32.8267 12.9129 32.4897 12.9129 32.1809C12.9129 31.8384 12.7885 31.552 12.5339 31.3105C12.2794 31.0691 11.9627 30.9512 11.5781 30.9512C11.1821 30.9512 10.8541 31.0747 10.5995 31.3274C10.345 31.5801 10.1753 32.0181 10.0905 32.6526L6.96833 32.3999C7.09276 31.5239 7.31335 30.8445 7.6414 30.356C7.96946 29.8674 8.4276 29.4912 9.02149 29.2273C9.61538 28.9634 10.4412 28.8342 11.4932 28.8342C12.5905 28.8342 13.4446 28.9578 14.0554 29.2104C14.6663 29.4575 15.1471 29.8394 15.4921 30.3503C15.8428 30.8669 16.0181 31.4453 16.0181 32.0798C16.0181 32.7593 15.8145 33.405 15.4186 34.0283C15.017 34.646 14.2873 35.3254 13.2296 36.0667C12.6018 36.499 12.1833 36.8022 11.9683 36.9707C11.759 37.1448 11.5102 37.3694 11.2217 37.6501H16.0973V40.1658V40.1658ZM14.6324 3.84644V15.1836H11.4819V7.76587C10.9728 8.14771 10.4808 8.45654 10 8.69238C9.51923 8.92822 8.92534 9.15845 8.20136 9.37183V6.85059C9.26471 6.50806 10.0905 6.09814 10.6731 5.62085C11.2613 5.14355 11.7195 4.54834 12.0532 3.84644H14.6324ZM9.90385 57.135L6.95701 56.6128C7.20023 55.6807 7.66968 54.9675 8.37104 54.4678C9.06674 53.9736 10.0509 53.7209 11.3235 53.7209C12.7885 53.7209 13.8462 53.9905 14.4966 54.5352C15.1471 55.0798 15.4751 55.7593 15.4751 56.5791C15.4751 57.0564 15.3394 57.4944 15.0792 57.8818C14.8133 58.2693 14.4174 58.6118 13.8857 58.9094C14.3213 59.0161 14.6493 59.1396 14.8812 59.2856C15.2545 59.5159 15.543 59.8135 15.7466 60.1841C15.9559 60.5603 16.0577 61.0039 16.0577 61.5205C16.0577 62.1719 15.888 62.7896 15.543 63.3904C15.198 63.9856 14.7115 64.446 14.0667 64.7661C13.4219 65.0862 12.5792 65.249 11.5328 65.249C10.5147 65.249 9.70588 65.1311 9.11765 64.8896C8.52941 64.6538 8.04299 64.3057 7.66403 63.8452C7.28507 63.3848 6.99095 62.8064 6.78733 62.1101L9.9095 61.6946C10.0339 62.3179 10.2206 62.7559 10.4808 62.9973C10.7353 63.2388 11.0633 63.3623 11.4649 63.3623C11.8778 63.3623 12.2285 63.2107 12.5057 62.9075C12.7828 62.6042 12.9186 62.2 12.9186 61.689C12.9186 61.1724 12.7828 60.7737 12.517 60.4873C12.2511 60.2065 11.8891 60.0605 11.431 60.0605C11.1878 60.0605 10.8484 60.1223 10.4242 60.2402L10.5882 58.0278C10.7579 58.0559 10.8937 58.0671 10.9898 58.0671C11.3914 58.0671 11.7308 57.938 11.9966 57.6797C12.2681 57.4214 12.4038 57.1182 12.4038 56.7644C12.4038 56.4275 12.302 56.1523 12.0984 55.9558C11.8948 55.7537 11.6176 55.6526 11.2613 55.6526C10.8937 55.6526 10.5995 55.7593 10.3676 55.9839C10.1357 56.2029 9.98303 56.5847 9.90385 57.135ZM3.28054 0H34.7285C36.5328 0 38.009 1.46558 38.009 3.25684V15.7732C38.009 17.5645 36.5328 19.03 34.7285 19.03H3.28054C1.47624 19.03 0 17.5645 0 15.7732V3.25684C0 1.46558 1.47624 0 3.28054 0ZM3.28054 24.9878H45.6561C47.4604 24.9878 48.9366 26.4534 48.9366 28.2446V40.761C48.9366 42.5522 47.4604 44.0178 45.6561 44.0178H3.28054C1.47624 44.0178 0 42.5522 0 40.761V28.239C0 26.4478 1.47624 24.9878 3.28054 24.9878Z" fill="white"/>
</svg>
