<svg width="100" height="100" viewBox="0 0 100 100" fill="none" xmlns="http://www.w3.org/2000/svg">
<rect x="0.5" y="0.5" width="99" height="99" rx="14.5" stroke="white"/>
<path d="M74.3513 37.2477L62.3254 47.993C62.0238 48.2624 61.9202 48.6898 62.0639 49.0674C62.208 49.4451 62.5701 49.6947 62.9741 49.6947L66.2726 49.6947L66.2726 68.1722C66.2726 68.7105 66.7086 69.1469 67.2467 69.1469C67.7848 69.1469 68.2208 68.7105 68.2208 68.1722L68.2208 48.7201C68.2208 48.1818 67.7848 47.7454 67.2467 47.7454L65.5274 47.7454L75 39.2814L84.4727 47.7454L82.7533 47.7454C82.2152 47.7454 81.7792 48.1818 81.7792 48.7201L81.7792 77.0507L68.2209 77.0507L68.2209 72.0707C68.2209 71.5324 67.7849 71.096 67.2468 71.096C66.7087 71.096 66.2727 71.5324 66.2727 72.0707L66.2727 78.0254C66.2727 78.5636 66.7087 79 67.2468 79L82.7533 79C83.2914 79 83.7274 78.5636 83.7274 78.0254L83.7274 49.6946L87.0259 49.6946C87.4298 49.6946 87.7919 49.4451 87.9361 49.0673C87.9792 48.9541 88 48.8366 88 48.7201C88 48.4477 87.8858 48.1814 87.6747 47.9928L75.6488 37.2475C75.2793 36.9175 74.7208 36.9175 74.3513 37.2477Z" fill="white"/>
<path d="M25.1238 50.2368L36.6871 60.5098C36.9771 60.7673 37.0768 61.1759 36.9385 61.537C36.8 61.898 36.4519 62.1367 36.0634 62.1367L32.8917 62.1367L32.8917 68.6482C32.8917 69.1628 32.4725 69.58 31.9551 69.58C31.4377 69.58 31.0185 69.1628 31.0185 68.6482L31.0185 61.2049C31.0185 60.6903 31.4377 60.2731 31.9551 60.2731L33.6083 60.2731L24.5 52.1812L15.3917 60.2731L17.0449 60.2731C17.5623 60.2731 17.9815 60.6903 17.9815 61.2049L17.9815 77.1364L31.0184 77.1364L31.0184 72.3753C31.0184 71.8607 31.4376 71.4435 31.955 71.4435C32.4724 71.4435 32.8916 71.8607 32.8916 72.3753L32.8916 78.0682C32.8916 78.5828 32.4724 79 31.955 79L17.0449 79C16.5275 79 16.1083 78.5828 16.1083 78.0682L16.1083 62.1366L12.9366 62.1366C12.5482 62.1366 12.2001 61.898 12.0614 61.5369C12.02 61.4286 12 61.3163 12 61.2049C12 60.9445 12.1098 60.6899 12.3128 60.5096L23.8762 50.2367C24.2315 49.9211 24.7685 49.9211 25.1238 50.2368Z" fill="white"/>
<path d="M49.3513 20.2542L37.3254 31.2849C37.0238 31.5615 36.9202 32.0002 37.0639 32.3879C37.208 32.7756 37.5701 33.0318 37.9741 33.0318L41.2726 33.0318L41.2726 38.3847C41.2726 38.9372 41.7086 39.3852 42.2467 39.3852C42.7848 39.3852 43.2208 38.9372 43.2208 38.3847L43.2208 32.0313C43.2208 31.4787 42.7848 31.0308 42.2467 31.0308L40.5274 31.0308L50 22.342L59.4726 31.0308L57.7533 31.0308C57.2152 31.0308 56.7792 31.4787 56.7792 32.0313L56.7792 76.9989L43.2209 76.9989L43.2209 42.3867C43.2209 41.8341 42.7849 41.3861 42.2468 41.3861C41.7087 41.3861 41.2727 41.8341 41.2727 42.3867L41.2727 77.9995C41.2727 78.552 41.7087 79 42.2468 79L57.7533 79C58.2914 79 58.7274 78.552 58.7274 77.9995L58.7274 33.0317L62.0259 33.0317C62.4298 33.0317 62.7919 32.7756 62.9361 32.3877C62.9792 32.2716 63 32.151 63 32.0313C63 31.7517 62.8858 31.4783 62.6747 31.2848L50.6488 20.2541C50.2793 19.9153 49.7208 19.9153 49.3513 20.2542Z" fill="white"/>
</svg>
