<svg width="100" height="100" viewBox="0 0 100 100" fill="none" xmlns="http://www.w3.org/2000/svg">
<rect x="0.5" y="0.5" width="99" height="99" rx="14.5" stroke="white"/>
<path d="M51.1514 57.1797V65H49.54V57.1797H51.1514ZM54.2666 60.5205V61.7773H50.7109V60.5205H54.2666ZM54.6426 57.1797V58.4419H50.7109V57.1797H54.6426ZM55.5771 57.1797H58.4937C59.0916 57.1797 59.6055 57.2692 60.0352 57.4482C60.4684 57.6273 60.8014 57.8923 61.0342 58.2432C61.2669 58.5941 61.3833 59.0256 61.3833 59.5376C61.3833 59.9565 61.3117 60.3164 61.1685 60.6172C61.0288 60.9144 60.8301 61.1632 60.5723 61.3638C60.318 61.5607 60.019 61.7183 59.6753 61.8364L59.165 62.105H56.6299L56.6191 60.8481H58.5044C58.7873 60.8481 59.0218 60.798 59.208 60.6978C59.3942 60.5975 59.5339 60.4578 59.627 60.2788C59.7236 60.0998 59.772 59.8921 59.772 59.6558C59.772 59.4051 59.7254 59.1885 59.6323 59.0059C59.5392 58.8232 59.3978 58.6836 59.208 58.5869C59.0182 58.4902 58.7801 58.4419 58.4937 58.4419H57.1885V65H55.5771V57.1797ZM59.9492 65L58.166 61.5142L59.8687 61.5034L61.6733 64.9248V65H59.9492ZM63.3599 57.1797H64.7241L66.7329 62.9214L68.7417 57.1797H70.106L67.2808 65H66.1851L63.3599 57.1797ZM62.624 57.1797H63.9829L64.23 62.7764V65H62.624V57.1797ZM69.4829 57.1797H70.8472V65H69.2358V62.7764L69.4829 57.1797ZM73.4092 59.1885L74.3706 60.9556L75.3589 59.1885H77.0078L75.3643 62.0298L77.083 65H75.4287L74.3813 63.1309L73.334 65H71.6797L73.3984 62.0298L71.7549 59.1885H73.4092Z" fill="white"/>
<mask id="path-3-inside-1_23_666" fill="white">
<path d="M43.5076 56.5229C42.509 60.8703 42.9925 65.4267 44.881 69.4678C46.7696 73.5088 49.9548 76.8026 53.9304 78.8253C57.906 80.8481 62.4437 81.4838 66.822 80.6314C71.2004 79.779 75.1682 77.4873 78.0945 74.1208C81.0208 70.7543 82.7378 66.5062 82.9723 62.0518C83.2069 57.5974 81.9457 53.1924 79.3891 49.5371C76.8325 45.8819 73.1274 43.1862 68.8628 41.8786C64.5982 40.571 60.0188 40.7266 55.8528 42.3207L56.4759 43.9492C60.2787 42.4942 64.4588 42.3521 68.3517 43.5457C72.2445 44.7393 75.6266 47.1999 77.9602 50.5365C80.2939 53.8731 81.4452 57.894 81.231 61.9601C81.0169 66.0261 79.4497 69.9039 76.7785 72.9769C74.1073 76.0499 70.4855 78.1417 66.4888 78.9199C62.4922 79.698 58.3501 79.1177 54.7211 77.2712C51.0922 75.4248 48.1846 72.4182 46.4607 68.7295C44.7368 65.0408 44.2955 60.8816 45.207 56.9132L43.5076 56.5229Z"/>
</mask>
<path d="M43.5076 56.5229C42.509 60.8703 42.9925 65.4267 44.881 69.4678C46.7696 73.5088 49.9548 76.8026 53.9304 78.8253C57.906 80.8481 62.4437 81.4838 66.822 80.6314C71.2004 79.779 75.1682 77.4873 78.0945 74.1208C81.0208 70.7543 82.7378 66.5062 82.9723 62.0518C83.2069 57.5974 81.9457 53.1924 79.3891 49.5371C76.8325 45.8819 73.1274 43.1862 68.8628 41.8786C64.5982 40.571 60.0188 40.7266 55.8528 42.3207L56.4759 43.9492C60.2787 42.4942 64.4588 42.3521 68.3517 43.5457C72.2445 44.7393 75.6266 47.1999 77.9602 50.5365C80.2939 53.8731 81.4452 57.894 81.231 61.9601C81.0169 66.0261 79.4497 69.9039 76.7785 72.9769C74.1073 76.0499 70.4855 78.1417 66.4888 78.9199C62.4922 79.698 58.3501 79.1177 54.7211 77.2712C51.0922 75.4248 48.1846 72.4182 46.4607 68.7295C44.7368 65.0408 44.2955 60.8816 45.207 56.9132L43.5076 56.5229Z" stroke="white" stroke-width="4" mask="url(#path-3-inside-1_23_666)"/>
<circle cx="38" cy="39" r="20" fill="white"/>
<path d="M28.127 34.4688V43H26.3691V34.4688H28.127ZM31.5254 38.1133V39.4844H27.6465V38.1133H31.5254ZM31.9355 34.4688V35.8457H27.6465V34.4688H31.9355ZM32.9551 34.4688H36.1367C36.7891 34.4688 37.3496 34.5664 37.8184 34.7617C38.291 34.957 38.6543 35.2461 38.9082 35.6289C39.1621 36.0117 39.2891 36.4824 39.2891 37.041C39.2891 37.498 39.2109 37.8906 39.0547 38.2188C38.9023 38.543 38.6855 38.8145 38.4043 39.0332C38.127 39.248 37.8008 39.4199 37.4258 39.5488L36.8691 39.8418H34.1035L34.0918 38.4707H36.1484C36.457 38.4707 36.7129 38.416 36.916 38.3066C37.1191 38.1973 37.2715 38.0449 37.373 37.8496C37.4785 37.6543 37.5312 37.4277 37.5312 37.1699C37.5312 36.8965 37.4805 36.6602 37.3789 36.4609C37.2773 36.2617 37.123 36.1094 36.916 36.0039C36.709 35.8984 36.4492 35.8457 36.1367 35.8457H34.7129V43H32.9551V34.4688ZM37.7246 43L35.7793 39.1973L37.6367 39.1855L39.6055 42.918V43H37.7246ZM41.4453 34.4688H42.9336L45.125 40.7324L47.3164 34.4688H48.8047L45.7227 43H44.5273L41.4453 34.4688ZM40.6426 34.4688H42.125L42.3945 40.5742V43H40.6426V34.4688ZM48.125 34.4688H49.6133V43H47.8555V40.5742L48.125 34.4688Z" fill="black"/>
</svg>
