<svg width="100" height="100" viewBox="0 0 100 100" fill="none" xmlns="http://www.w3.org/2000/svg">
<rect x="0.5" y="0.5" width="99" height="99" rx="14.5" stroke="white"/>
<path fill-rule="evenodd" clip-rule="evenodd" d="M26.2805 65.97H79.7195C81.5238 65.97 83 67.4355 83 69.2268V81.7432C83 83.5344 81.5238 85 79.7195 85H26.2805C24.4762 85 23 83.5344 23 81.7432V69.2268C23 67.4355 24.4762 65.97 26.2805 65.97ZM39.0973 56.1658H29.7308C29.8382 55.2505 30.1663 54.3857 30.7093 53.5771C31.2523 52.7686 32.2704 51.814 33.7692 50.7134C34.6855 50.0396 35.2681 49.5286 35.5283 49.1748C35.7828 48.8267 35.9129 48.4897 35.9129 48.1809C35.9129 47.8384 35.7885 47.552 35.5339 47.3105C35.2794 47.0691 34.9627 46.9512 34.5781 46.9512C34.1821 46.9512 33.8541 47.0747 33.5995 47.3274C33.345 47.5801 33.1753 48.0181 33.0905 48.6526L29.9683 48.3999C30.0928 47.5239 30.3133 46.8445 30.6414 46.356C30.9695 45.8674 31.4276 45.4912 32.0215 45.2273C32.6154 44.9634 33.4412 44.8342 34.4932 44.8342C35.5905 44.8342 36.4446 44.9578 37.0554 45.2104C37.6663 45.4575 38.1471 45.8394 38.4921 46.3503C38.8428 46.8669 39.0181 47.4453 39.0181 48.0798C39.0181 48.7593 38.8145 49.405 38.4186 50.0283C38.017 50.646 37.2873 51.3254 36.2296 52.0667C35.6018 52.499 35.1833 52.8022 34.9683 52.9707C34.759 53.1448 34.5102 53.3694 34.2217 53.6501H39.0973V56.1658V56.1658ZM37.6324 19.8464V31.1836H34.4819V23.7659C33.9728 24.1477 33.4808 24.4565 33 24.6924C32.5192 24.9282 31.9253 25.1584 31.2014 25.3718V22.8506C32.2647 22.5081 33.0905 22.0981 33.6731 21.6208C34.2613 21.1436 34.7195 20.5483 35.0532 19.8464H37.6324ZM32.9038 73.135L29.957 72.6128C30.2002 71.6807 30.6697 70.9675 31.371 70.4678C32.0667 69.9736 33.0509 69.7209 34.3235 69.7209C35.7885 69.7209 36.8462 69.9905 37.4966 70.5352C38.1471 71.0798 38.4751 71.7593 38.4751 72.5791C38.4751 73.0564 38.3394 73.4944 38.0792 73.8818C37.8133 74.2693 37.4174 74.6118 36.8857 74.9094C37.3213 75.0161 37.6493 75.1396 37.8812 75.2856C38.2545 75.5159 38.543 75.8135 38.7466 76.1841C38.9559 76.5603 39.0577 77.0039 39.0577 77.5205C39.0577 78.1719 38.888 78.7896 38.543 79.3904C38.198 79.9856 37.7115 80.446 37.0667 80.7661C36.4219 81.0862 35.5792 81.249 34.5328 81.249C33.5147 81.249 32.7059 81.1311 32.1176 80.8896C31.5294 80.6538 31.043 80.3057 30.664 79.8452C30.2851 79.3848 29.9909 78.8064 29.7873 78.1101L32.9095 77.6946C33.0339 78.3179 33.2206 78.7559 33.4808 78.9973C33.7353 79.2388 34.0633 79.3623 34.4649 79.3623C34.8778 79.3623 35.2285 79.2107 35.5057 78.9075C35.7828 78.6042 35.9186 78.2 35.9186 77.689C35.9186 77.1724 35.7828 76.7737 35.517 76.4873C35.2511 76.2065 34.8891 76.0605 34.431 76.0605C34.1878 76.0605 33.8484 76.1223 33.4242 76.2402L33.5882 74.0278C33.7579 74.0559 33.8937 74.0671 33.9898 74.0671C34.3914 74.0671 34.7308 73.938 34.9966 73.6797C35.2681 73.4214 35.4038 73.1182 35.4038 72.7644C35.4038 72.4275 35.302 72.1523 35.0984 71.9558C34.8948 71.7537 34.6176 71.6526 34.2613 71.6526C33.8937 71.6526 33.5995 71.7593 33.3676 71.9839C33.1357 72.2029 32.983 72.5847 32.9038 73.135ZM26.2805 16H57.7285C59.5328 16 61.009 17.4656 61.009 19.2568V31.7732C61.009 33.5645 59.5328 35.03 57.7285 35.03H26.2805C24.4762 35.03 23 33.5645 23 31.7732V19.2568C23 17.4656 24.4762 16 26.2805 16ZM26.2805 40.9878H68.6561C70.4604 40.9878 71.9366 42.4534 71.9366 44.2446V56.761C71.9366 58.5522 70.4604 60.0178 68.6561 60.0178H26.2805C24.4762 60.0178 23 58.5522 23 56.761V44.239C23 42.4478 24.4762 40.9878 26.2805 40.9878Z" fill="white"/>
</svg>
