<svg width="100" height="100" viewBox="0 0 100 100" fill="none" xmlns="http://www.w3.org/2000/svg">
<rect x="0.5" y="0.5" width="99" height="99" rx="14.5" stroke="white"/>
<path d="M35.0373 40.3862L46.6185 72.4056L19.4506 40.3862H35.0373Z" fill="white"/>
<path d="M47.3319 24.0788L36.1715 37.1L31.4613 24.0788H47.3319Z" fill="white"/>
<path d="M67.9522 24.0788L63.2418 37.1L52.0815 24.0788H67.9522Z" fill="white"/>
<path d="M79.9629 40.3862L52.7949 72.4056L64.3762 40.3862H79.9629Z" fill="white"/>
<path d="M69.8654 25.2087L80.075 38.2022H65.1668L69.8654 25.2087Z" fill="white"/>
<path d="M62.0538 40.3863L49.7067 74.5227L37.3596 40.3863H62.0538Z" fill="white"/>
<path d="M49.7067 24.6639L61.3098 38.2022H38.1037L49.7067 24.6639Z" fill="white"/>
<path d="M29.2725 25L34 38H19L29.2725 25Z" fill="white"/>
</svg>
