<svg width="108" height="108" viewBox="0 0 108 108" fill="none" xmlns="http://www.w3.org/2000/svg">
<g filter="url(#filter0_d_23_563)">
<rect x="4.5" y="0.5" width="99" height="99" rx="14.5" fill="#161C24" stroke="#DAB46E"/>
<path d="M55.1514 57.1797V65H53.54V57.1797H55.1514ZM58.2666 60.5205V61.7773H54.7109V60.5205H58.2666ZM58.6426 57.1797V58.4419H54.7109V57.1797H58.6426ZM59.5771 57.1797H62.4937C63.0916 57.1797 63.6055 57.2692 64.0352 57.4482C64.4684 57.6273 64.8014 57.8923 65.0342 58.2432C65.2669 58.5941 65.3833 59.0256 65.3833 59.5376C65.3833 59.9565 65.3117 60.3164 65.1685 60.6172C65.0288 60.9144 64.8301 61.1632 64.5723 61.3638C64.318 61.5607 64.019 61.7183 63.6753 61.8364L63.165 62.105H60.6299L60.6191 60.8481H62.5044C62.7873 60.8481 63.0218 60.798 63.208 60.6978C63.3942 60.5975 63.5339 60.4578 63.627 60.2788C63.7236 60.0998 63.772 59.8921 63.772 59.6558C63.772 59.4051 63.7254 59.1885 63.6323 59.0059C63.5392 58.8232 63.3978 58.6836 63.208 58.5869C63.0182 58.4902 62.7801 58.4419 62.4937 58.4419H61.1885V65H59.5771V57.1797ZM63.9492 65L62.166 61.5142L63.8687 61.5034L65.6733 64.9248V65H63.9492ZM67.3599 57.1797H68.7241L70.7329 62.9214L72.7417 57.1797H74.106L71.2808 65H70.1851L67.3599 57.1797ZM66.624 57.1797H67.9829L68.23 62.7764V65H66.624V57.1797ZM73.4829 57.1797H74.8472V65H73.2358V62.7764L73.4829 57.1797ZM77.4092 59.1885L78.3706 60.9556L79.3589 59.1885H81.0078L79.3643 62.0298L81.083 65H79.4287L78.3813 63.1309L77.334 65H75.6797L77.3984 62.0298L75.7549 59.1885H77.4092Z" fill="#DAB46E"/>
<mask id="path-3-inside-1_23_563" fill="white">
<path d="M47.5076 56.5229C46.509 60.8703 46.9925 65.4267 48.881 69.4678C50.7696 73.5088 53.9548 76.8026 57.9304 78.8253C61.906 80.8481 66.4437 81.4838 70.822 80.6314C75.2004 79.779 79.1682 77.4873 82.0945 74.1208C85.0208 70.7543 86.7378 66.5062 86.9723 62.0518C87.2069 57.5974 85.9457 53.1924 83.3891 49.5371C80.8325 45.8819 77.1274 43.1862 72.8628 41.8786C68.5982 40.571 64.0188 40.7266 59.8528 42.3207L60.4759 43.9492C64.2787 42.4942 68.4588 42.3521 72.3517 43.5457C76.2445 44.7393 79.6266 47.1999 81.9602 50.5365C84.2939 53.8731 85.4452 57.894 85.231 61.9601C85.0169 66.0261 83.4497 69.9039 80.7785 72.9769C78.1073 76.0499 74.4855 78.1417 70.4888 78.9199C66.4922 79.698 62.3501 79.1177 58.7211 77.2712C55.0922 75.4248 52.1846 72.4182 50.4607 68.7295C48.7368 65.0408 48.2955 60.8816 49.207 56.9132L47.5076 56.5229Z"/>
</mask>
<path d="M47.5076 56.5229C46.509 60.8703 46.9925 65.4267 48.881 69.4678C50.7696 73.5088 53.9548 76.8026 57.9304 78.8253C61.906 80.8481 66.4437 81.4838 70.822 80.6314C75.2004 79.779 79.1682 77.4873 82.0945 74.1208C85.0208 70.7543 86.7378 66.5062 86.9723 62.0518C87.2069 57.5974 85.9457 53.1924 83.3891 49.5371C80.8325 45.8819 77.1274 43.1862 72.8628 41.8786C68.5982 40.571 64.0188 40.7266 59.8528 42.3207L60.4759 43.9492C64.2787 42.4942 68.4588 42.3521 72.3517 43.5457C76.2445 44.7393 79.6266 47.1999 81.9602 50.5365C84.2939 53.8731 85.4452 57.894 85.231 61.9601C85.0169 66.0261 83.4497 69.9039 80.7785 72.9769C78.1073 76.0499 74.4855 78.1417 70.4888 78.9199C66.4922 79.698 62.3501 79.1177 58.7211 77.2712C55.0922 75.4248 52.1846 72.4182 50.4607 68.7295C48.7368 65.0408 48.2955 60.8816 49.207 56.9132L47.5076 56.5229Z" stroke="#DAB46E" stroke-width="4" mask="url(#path-3-inside-1_23_563)"/>
<circle cx="42" cy="39" r="20" fill="url(#paint0_linear_23_563)"/>
<path d="M32.127 34.4688V43H30.3691V34.4688H32.127ZM35.5254 38.1133V39.4844H31.6465V38.1133H35.5254ZM35.9355 34.4688V35.8457H31.6465V34.4688H35.9355ZM36.9551 34.4688H40.1367C40.7891 34.4688 41.3496 34.5664 41.8184 34.7617C42.291 34.957 42.6543 35.2461 42.9082 35.6289C43.1621 36.0117 43.2891 36.4824 43.2891 37.041C43.2891 37.498 43.2109 37.8906 43.0547 38.2188C42.9023 38.543 42.6855 38.8145 42.4043 39.0332C42.127 39.248 41.8008 39.4199 41.4258 39.5488L40.8691 39.8418H38.1035L38.0918 38.4707H40.1484C40.457 38.4707 40.7129 38.416 40.916 38.3066C41.1191 38.1973 41.2715 38.0449 41.373 37.8496C41.4785 37.6543 41.5312 37.4277 41.5312 37.1699C41.5312 36.8965 41.4805 36.6602 41.3789 36.4609C41.2773 36.2617 41.123 36.1094 40.916 36.0039C40.709 35.8984 40.4492 35.8457 40.1367 35.8457H38.7129V43H36.9551V34.4688ZM41.7246 43L39.7793 39.1973L41.6367 39.1855L43.6055 42.918V43H41.7246ZM45.4453 34.4688H46.9336L49.125 40.7324L51.3164 34.4688H52.8047L49.7227 43H48.5273L45.4453 34.4688ZM44.6426 34.4688H46.125L46.3945 40.5742V43H44.6426V34.4688ZM52.125 34.4688H53.6133V43H51.8555V40.5742L52.125 34.4688Z" fill="#161C24"/>
</g>
<defs>
<filter id="filter0_d_23_563" x="0" y="0" width="108" height="108" filterUnits="userSpaceOnUse" color-interpolation-filters="sRGB">
<feFlood flood-opacity="0" result="BackgroundImageFix"/>
<feColorMatrix in="SourceAlpha" type="matrix" values="0 0 0 0 0 0 0 0 0 0 0 0 0 0 0 0 0 0 127 0" result="hardAlpha"/>
<feOffset dy="4"/>
<feGaussianBlur stdDeviation="2"/>
<feComposite in2="hardAlpha" operator="out"/>
<feColorMatrix type="matrix" values="0 0 0 0 0 0 0 0 0 0 0 0 0 0 0 0 0 0 0.25 0"/>
<feBlend mode="normal" in2="BackgroundImageFix" result="effect1_dropShadow_23_563"/>
<feBlend mode="normal" in="SourceGraphic" in2="effect1_dropShadow_23_563" result="shape"/>
</filter>
<linearGradient id="paint0_linear_23_563" x1="42" y1="19" x2="42" y2="59" gradientUnits="userSpaceOnUse">
<stop stop-color="#C69749"/>
<stop offset="1" stop-color="#DAB46E"/>
</linearGradient>
</defs>
</svg>
