<svg width="100" height="100" viewBox="0 0 100 100" fill="none" xmlns="http://www.w3.org/2000/svg">
<rect x="0.5" y="0.5" width="99" height="99" rx="14.5" fill="#161C24" stroke="#DAB46E"/>
<path fill-rule="evenodd" clip-rule="evenodd" d="M56.0409 20.1349C54.9139 21.2699 54.9139 23.0966 54.9139 26.75C54.9139 30.4034 54.9139 32.2301 56.0409 33.3651C57.1679 34.5 58.9817 34.5 62.6093 34.5H70.3046C73.9322 34.5 75.746 34.5 76.873 33.3651C78 32.2301 78 30.4034 78 26.75C78 23.0966 78 21.2699 76.873 20.1349C75.746 19 73.9322 19 70.3046 19H62.6093C58.9817 19 57.1679 19 56.0409 20.1349ZM23.1269 61.0326C22 62.1676 22 69.5967 22 73.25C22 76.9034 22 78.73 23.1269 79.865C24.2539 81 26.0677 81 29.6954 81H37.3907C41.0184 81 42.8322 81 43.9591 79.865C45.0861 78.73 45.0861 76.9034 45.0861 73.25C45.0861 69.5967 45.0861 62.1676 43.9591 61.0326C42.8322 59.8976 41.0184 59.8976 37.3907 59.8976H29.6954C26.0677 59.8976 24.2539 59.8976 23.1269 61.0326ZM54.9139 52.1476C54.9139 48.4942 54.9139 46.6676 56.0409 45.5326C57.1679 44.3976 58.9817 44.3976 62.6093 44.3976H70.3046C73.9322 44.3976 75.746 44.3976 76.873 45.5326C78 46.6676 78 48.4942 78 52.1476V73.25C78 76.9034 78 78.73 76.873 79.865C75.746 81 73.9322 81 70.3046 81H62.6093C58.9817 81 57.1679 81 56.0409 79.865C54.9139 78.73 54.9139 76.9034 54.9139 73.25V52.1476ZM23.1269 20.1349C22 21.2699 22 23.0966 22 26.75V42.25C22 45.9034 22 47.73 23.1269 48.865C24.2539 50 26.0677 50 29.6954 50H37.3907C41.0184 50 42.8322 50 43.9591 48.865C45.0861 47.73 45.0861 45.9034 45.0861 42.25V26.75C45.0861 23.0966 45.0861 21.2699 43.9591 20.1349C42.8322 19 41.0184 19 37.3907 19H29.6954C26.0677 19 24.2539 19 23.1269 20.1349Z" fill="url(#paint0_linear_23_570)"/>
<defs>
<linearGradient id="paint0_linear_23_570" x1="50" y1="19" x2="50" y2="81" gradientUnits="userSpaceOnUse">
<stop stop-color="#DAB46E"/>
<stop offset="1" stop-color="#C69749"/>
</linearGradient>
</defs>
</svg>
