<svg width="100" height="100" viewBox="0 0 100 100" fill="none" xmlns="http://www.w3.org/2000/svg">
<rect x="0.5" y="0.5" width="99" height="99" rx="14.5" fill="#161C24" stroke="#DAB46E"/>
<path d="M35.0373 40.3862L46.6185 72.4056L19.4506 40.3862H35.0373Z" fill="#DAB46E"/>
<path d="M47.3319 24.0788L36.1715 37.1L31.4613 24.0788H47.3319Z" fill="#DAB46E"/>
<path d="M67.9522 24.0788L63.2418 37.1L52.0815 24.0788H67.9522Z" fill="#DAB46E"/>
<path d="M79.9629 40.3862L52.7949 72.4056L64.3762 40.3862H79.9629Z" fill="#DAB46E"/>
<path d="M69.8654 25.2087L80.075 38.2022H65.1668L69.8654 25.2087Z" fill="#C69749"/>
<path d="M62.0538 40.3863L49.7067 74.5227L37.3596 40.3863H62.0538Z" fill="#C69749"/>
<path d="M49.7067 24.6639L61.3098 38.2022H38.1037L49.7067 24.6639Z" fill="#C69749"/>
<path d="M82.7686 38.7457C83.087 39.1539 83.0754 39.7311 82.7426 40.1277L50.3277 78.6137C50.1207 78.8588 49.8184 79 49.4999 79C49.1815 79 48.8791 78.8585 48.6721 78.6137L16.2574 40.1277C15.9246 39.7311 15.913 39.1539 16.2314 38.7457L28.9658 22.4183C29.1714 22.1543 29.4868 22 29.8196 22H69.1804C69.5133 22 69.8288 22.1545 70.0342 22.4183L82.7686 38.7457ZM79.682 38.3274L69.5349 25.318L64.8651 38.3274H79.682ZM52.5693 72.5726L79.5705 40.5141H64.0795L52.5693 72.5726ZM62.9521 37.2238L67.6335 24.1867H51.8603L62.9521 37.2238ZM49.5001 74.6922L61.7714 40.514H37.2287L49.5001 74.6922ZM61.0319 38.3274L49.5001 24.7727L37.9682 38.3274H61.0319ZM36.0479 37.2238L47.1398 24.1867H31.3665L36.0479 37.2238ZM46.4307 72.5726L34.9206 40.5141H19.4295L46.4307 72.5726ZM34.1349 38.3274L29.4651 25.318L19.318 38.3274H34.1349Z" fill="#161C24"/>
<path d="M29.2725 25L34 38H19L29.2725 25Z" fill="#C69749"/>
</svg>
