<svg width="64" height="72" viewBox="0 0 64 72" fill="none" xmlns="http://www.w3.org/2000/svg">
<path d="M61.703 16.3255L34.315 0.612439C32.8882 -0.204146 31.1301 -0.204146 29.7032 0.612439L2.30609 16.3255C0.878761 17.1421 0 18.6531 0 20.2959V51.7131C0 53.3462 0.878774 54.8669 2.30609 55.6835L29.6941 71.3876C31.1209 72.2041 32.879 72.2041 34.3059 71.3876L61.6939 55.6835C63.1207 54.8669 64 53.3559 64 51.7131L63.999 20.2959C64.0086 18.6533 63.1298 17.1421 61.7025 16.3255H61.703ZM61.7409 50.409C61.7409 52.0422 60.8621 53.5628 59.4348 54.3795L34.3159 68.7786C32.8891 69.5952 31.131 69.5952 29.7041 68.7786L4.57476 54.3795C3.14795 53.5534 2.26919 52.0422 2.26919 50.409V21.5915C2.26919 19.9583 3.14797 18.4377 4.57528 17.621L29.6942 3.2219C31.121 2.40531 32.8791 2.40531 34.306 3.2219L59.4263 17.63C60.8531 18.4466 61.7324 19.9577 61.7324 21.6005V50.4078L61.7409 50.409Z" fill="url(#paint0_linear_23_841)"/>
<path d="M52.7845 26.3743L36.1538 35.8432C34.8267 36.5975 34.0089 37.9934 34.0089 39.5109C34.0089 39.5109 34 47.3668 34 53.1412V53.5486C34 56.384 34 58.647 34.0089 59.0895C34.0263 60.5374 33.7366 62.9308 36.2239 61.6215L52.8462 52.1526C54.1732 51.3983 54.9911 50.0024 54.9911 48.4849C54.9911 48.4849 55 40.629 55 34.8546V34.4472C55 31.6118 55 29.3488 54.9911 28.9063C54.9826 27.4668 55.2723 25.0738 52.785 26.3743H52.7845Z" fill="url(#paint1_linear_23_841)"/>
<path d="M11.118 26.3742L26.9487 35.8432C28.2126 36.5975 28.9915 37.9934 28.9915 39.5109C28.9915 39.5109 29 47.3668 29 53.1412V53.5486C29 56.384 29 58.647 28.9915 59.0895C28.9749 60.5374 29.2508 62.9308 26.882 61.6215L11.0512 52.1614C9.78738 51.4071 9.00851 50.0112 9.00851 48.4937C9.00851 48.4937 9 40.6378 9 34.8633V34.456C9 31.6206 9 29.3576 9.00851 28.915C9.02508 27.4667 8.74874 25.0738 11.118 26.3741V26.3742Z" fill="url(#paint2_linear_23_841)"/>
<path d="M31.5037 31C32.2373 31 32.971 30.8139 33.6261 30.45L49.5664 21.5318C49.6449 21.481 49.715 21.4385 49.7673 21.405C50.8851 20.6775 52.0383 19.8649 49.357 18.342C49.2435 18.2741 49.1126 18.198 48.964 18.122L33.6267 9.55003C32.9715 9.18606 32.2379 9 31.5043 9C30.7706 9 30.0369 9.18606 29.3818 9.55003L14.0361 18.1301C13.8964 18.2061 13.7656 18.2822 13.6431 18.3501C10.9618 19.8648 12.1147 20.6855 13.2329 21.4131C13.2852 21.4471 13.3464 21.4892 13.4338 21.5399L29.374 30.4581C30.0376 30.8134 30.7713 31 31.5048 31L31.5037 31Z" fill="url(#paint3_linear_23_841)"/>
<defs>
<linearGradient id="paint0_linear_23_841" x1="32" y1="0" x2="32" y2="72" gradientUnits="userSpaceOnUse">
<stop stop-color="#C69749"/>
<stop offset="1" stop-color="#DAB46E"/>
</linearGradient>
<linearGradient id="paint1_linear_23_841" x1="44.5" y1="26" x2="44.5" y2="62" gradientUnits="userSpaceOnUse">
<stop stop-color="#C69749"/>
<stop offset="1" stop-color="#DAB46E"/>
</linearGradient>
<linearGradient id="paint2_linear_23_841" x1="19" y1="26" x2="19" y2="62" gradientUnits="userSpaceOnUse">
<stop stop-color="#C69749"/>
<stop offset="1" stop-color="#DAB46E"/>
</linearGradient>
<linearGradient id="paint3_linear_23_841" x1="31.5" y1="9" x2="31.5" y2="31" gradientUnits="userSpaceOnUse">
<stop stop-color="#C69749"/>
<stop offset="1" stop-color="#DAB46E"/>
</linearGradient>
</defs>
</svg>
