<svg width="65" height="62" viewBox="0 0 65 62" fill="none" xmlns="http://www.w3.org/2000/svg">
<path d="M33.1514 38.1797V46H31.54V38.1797H33.1514ZM36.2666 41.5205V42.7773H32.7109V41.5205H36.2666ZM36.6426 38.1797V39.4419H32.7109V38.1797H36.6426ZM37.5771 38.1797H40.4937C41.0916 38.1797 41.6055 38.2692 42.0352 38.4482C42.4684 38.6273 42.8014 38.8923 43.0342 39.2432C43.2669 39.5941 43.3833 40.0256 43.3833 40.5376C43.3833 40.9565 43.3117 41.3164 43.1685 41.6172C43.0288 41.9144 42.8301 42.1632 42.5723 42.3638C42.318 42.5607 42.019 42.7183 41.6753 42.8364L41.165 43.105H38.6299L38.6191 41.8481H40.5044C40.7873 41.8481 41.0218 41.798 41.208 41.6978C41.3942 41.5975 41.5339 41.4578 41.627 41.2788C41.7236 41.0998 41.772 40.8921 41.772 40.6558C41.772 40.4051 41.7254 40.1885 41.6323 40.0059C41.5392 39.8232 41.3978 39.6836 41.208 39.5869C41.0182 39.4902 40.7801 39.4419 40.4937 39.4419H39.1885V46H37.5771V38.1797ZM41.9492 46L40.166 42.5142L41.8687 42.5034L43.6733 45.9248V46H41.9492ZM45.3599 38.1797H46.7241L48.7329 43.9214L50.7417 38.1797H52.106L49.2808 46H48.1851L45.3599 38.1797ZM44.624 38.1797H45.9829L46.23 43.7764V46H44.624V38.1797ZM51.4829 38.1797H52.8472V46H51.2358V43.7764L51.4829 38.1797ZM55.4092 40.1885L56.3706 41.9556L57.3589 40.1885H59.0078L57.3643 43.0298L59.083 46H57.4287L56.3813 44.1309L55.334 46H53.6797L55.3984 43.0298L53.7549 40.1885H55.4092Z" fill="#DAB46E"/>
<mask id="path-2-inside-1_23_822" fill="white">
<path d="M25.5076 37.5229C24.509 41.8703 24.9925 46.4267 26.881 50.4678C28.7696 54.5088 31.9548 57.8026 35.9304 59.8253C39.906 61.8481 44.4437 62.4838 48.822 61.6314C53.2004 60.779 57.1682 58.4873 60.0945 55.1208C63.0208 51.7543 64.7378 47.5062 64.9723 43.0518C65.2069 38.5974 63.9457 34.1924 61.3891 30.5371C58.8325 26.8819 55.1274 24.1862 50.8628 22.8786C46.5982 21.571 42.0188 21.7266 37.8528 23.3207L38.4759 24.9492C42.2787 23.4942 46.4588 23.3521 50.3517 24.5457C54.2445 25.7393 57.6266 28.1999 59.9602 31.5365C62.2939 34.8731 63.4452 38.894 63.231 42.9601C63.0169 47.0261 61.4497 50.9039 58.7785 53.9769C56.1073 57.0499 52.4855 59.1417 48.4888 59.9199C44.4922 60.698 40.3501 60.1177 36.7211 58.2712C33.0922 56.4248 30.1846 53.4182 28.4607 49.7295C26.7368 46.0408 26.2955 41.8816 27.207 37.9132L25.5076 37.5229Z"/>
</mask>
<path d="M25.5076 37.5229C24.509 41.8703 24.9925 46.4267 26.881 50.4678C28.7696 54.5088 31.9548 57.8026 35.9304 59.8253C39.906 61.8481 44.4437 62.4838 48.822 61.6314C53.2004 60.779 57.1682 58.4873 60.0945 55.1208C63.0208 51.7543 64.7378 47.5062 64.9723 43.0518C65.2069 38.5974 63.9457 34.1924 61.3891 30.5371C58.8325 26.8819 55.1274 24.1862 50.8628 22.8786C46.5982 21.571 42.0188 21.7266 37.8528 23.3207L38.4759 24.9492C42.2787 23.4942 46.4588 23.3521 50.3517 24.5457C54.2445 25.7393 57.6266 28.1999 59.9602 31.5365C62.2939 34.8731 63.4452 38.894 63.231 42.9601C63.0169 47.0261 61.4497 50.9039 58.7785 53.9769C56.1073 57.0499 52.4855 59.1417 48.4888 59.9199C44.4922 60.698 40.3501 60.1177 36.7211 58.2712C33.0922 56.4248 30.1846 53.4182 28.4607 49.7295C26.7368 46.0408 26.2955 41.8816 27.207 37.9132L25.5076 37.5229Z" stroke="#DAB46E" stroke-width="4" mask="url(#path-2-inside-1_23_822)"/>
<circle cx="20" cy="20" r="20" fill="url(#paint0_linear_23_822)"/>
<path d="M10.127 15.4688V24H8.36914V15.4688H10.127ZM13.5254 19.1133V20.4844H9.64648V19.1133H13.5254ZM13.9355 15.4688V16.8457H9.64648V15.4688H13.9355ZM14.9551 15.4688H18.1367C18.7891 15.4688 19.3496 15.5664 19.8184 15.7617C20.291 15.957 20.6543 16.2461 20.9082 16.6289C21.1621 17.0117 21.2891 17.4824 21.2891 18.041C21.2891 18.498 21.2109 18.8906 21.0547 19.2188C20.9023 19.543 20.6855 19.8145 20.4043 20.0332C20.127 20.248 19.8008 20.4199 19.4258 20.5488L18.8691 20.8418H16.1035L16.0918 19.4707H18.1484C18.457 19.4707 18.7129 19.416 18.916 19.3066C19.1191 19.1973 19.2715 19.0449 19.373 18.8496C19.4785 18.6543 19.5312 18.4277 19.5312 18.1699C19.5312 17.8965 19.4805 17.6602 19.3789 17.4609C19.2773 17.2617 19.123 17.1094 18.916 17.0039C18.709 16.8984 18.4492 16.8457 18.1367 16.8457H16.7129V24H14.9551V15.4688ZM19.7246 24L17.7793 20.1973L19.6367 20.1855L21.6055 23.918V24H19.7246ZM23.4453 15.4688H24.9336L27.125 21.7324L29.3164 15.4688H30.8047L27.7227 24H26.5273L23.4453 15.4688ZM22.6426 15.4688H24.125L24.3945 21.5742V24H22.6426V15.4688ZM30.125 15.4688H31.6133V24H29.8555V21.5742L30.125 15.4688Z" fill="black"/>
<defs>
<linearGradient id="paint0_linear_23_822" x1="20" y1="0" x2="20" y2="40" gradientUnits="userSpaceOnUse">
<stop stop-color="#C69749"/>
<stop offset="1" stop-color="#DAB46E"/>
</linearGradient>
</defs>
</svg>
