<svg width="56" height="62" viewBox="0 0 56 62" fill="none" xmlns="http://www.w3.org/2000/svg">
<path fill-rule="evenodd" clip-rule="evenodd" d="M34.0409 1.13495C32.9139 2.26994 32.9139 4.09661 32.9139 7.75C32.9139 11.4034 32.9139 13.2301 34.0409 14.3651C35.1679 15.5 36.9817 15.5 40.6093 15.5H48.3046C51.9322 15.5 53.746 15.5 54.873 14.3651C56 13.2301 56 11.4034 56 7.75C56 4.09661 56 2.26994 54.873 1.13495C53.746 2.67144e-07 51.9322 0 48.3046 0H40.6093C36.9817 0 35.1679 2.67144e-07 34.0409 1.13495ZM1.12695 42.0326C2.6526e-07 43.1676 0 50.5967 0 54.25C0 57.9034 2.6526e-07 59.73 1.12695 60.865C2.25393 62 4.06773 62 7.69536 62H15.3907C19.0184 62 20.8322 62 21.9591 60.865C23.0861 59.73 23.0861 57.9034 23.0861 54.25C23.0861 50.5967 23.0861 43.1676 21.9591 42.0326C20.8322 40.8976 19.0184 40.8976 15.3907 40.8976H7.69536C4.06773 40.8976 2.25393 40.8976 1.12695 42.0326ZM32.9139 33.1476C32.9139 29.4942 32.9139 27.6676 34.0409 26.5326C35.1679 25.3976 36.9817 25.3976 40.6093 25.3976H48.3046C51.9322 25.3976 53.746 25.3976 54.873 26.5326C56 27.6676 56 29.4942 56 33.1476V54.25C56 57.9034 56 59.73 54.873 60.865C53.746 62 51.9322 62 48.3046 62H40.6093C36.9817 62 35.1679 62 34.0409 60.865C32.9139 59.73 32.9139 57.9034 32.9139 54.25V33.1476ZM1.12695 1.13495C2.6526e-07 2.26994 0 4.09661 0 7.75V23.25C0 26.9034 2.6526e-07 28.73 1.12695 29.865C2.25393 31 4.06773 31 7.69536 31H15.3907C19.0184 31 20.8322 31 21.9591 29.865C23.0861 28.73 23.0861 26.9034 23.0861 23.25V7.75C23.0861 4.09661 23.0861 2.26994 21.9591 1.13495C20.8322 2.67144e-07 19.0184 0 15.3907 0H7.69536C4.06773 0 2.25393 2.67144e-07 1.12695 1.13495Z" fill="url(#paint0_linear_23_829)"/>
<defs>
<linearGradient id="paint0_linear_23_829" x1="28" y1="0" x2="28" y2="62" gradientUnits="userSpaceOnUse">
<stop stop-color="#DAB46E"/>
<stop offset="1" stop-color="#C69749"/>
</linearGradient>
</defs>
</svg>
